<svg width="1083" height="771" viewBox="0 0 1083 771" fill="none" xmlns="http://www.w3.org/2000/svg">
<g clip-path="url(#clip0_1420_2)">
<path d="M19.4941 6.59518C14.4401 11.0493 13.5376 13.0092 13.5376 19.9577C13.5376 31.3603 20.2161 37.9525 31.7681 37.9525C38.8076 37.9525 40.7931 37.0617 45.3056 32.073C52.8866 23.8773 52.5256 15.5035 44.4031 7.48602C36.2806 -0.531483 27.7971 -0.887817 19.4941 6.59518ZM39.3491 12.4747C42.4176 15.5035 42.0566 23.8773 38.6271 27.0843C29.9631 35.8145 17.5086 24.7682 23.4651 13.7218C25.6311 9.80218 35.7391 8.91135 39.3491 12.4747Z" fill="#C8C8C8" fill-opacity="0.52"/>
<path d="M73.644 6.59518C68.59 11.0493 67.6875 13.0092 67.6875 19.9577C67.6875 31.3603 74.366 37.9525 85.918 37.9525C92.9575 37.9525 94.943 37.0617 99.4555 32.073C107.037 23.8773 106.676 15.5035 98.553 7.48602C90.4305 -0.531483 81.947 -0.887817 73.644 6.59518ZM93.499 12.4747C97.109 16.038 96.2065 26.0153 92.2355 28.1533C84.113 32.2512 75.81 28.3315 75.81 20.1358C75.81 17.8197 77.0735 14.6127 78.698 13.1873C81.947 9.80218 90.4305 9.44585 93.499 12.4747Z" fill="#C8C8C8" fill-opacity="0.52"/>
<path d="M127.794 6.59518C122.74 11.0493 121.837 13.0092 121.837 19.9577C121.837 31.3603 128.516 37.9525 140.068 37.9525C147.107 37.9525 149.093 37.0617 153.605 32.073C161.186 23.8773 160.825 15.5035 152.703 7.48602C144.58 -0.531483 136.097 -0.887817 127.794 6.59518ZM147.649 12.4747C150.717 15.5035 150.356 23.8773 146.927 27.0843C140.79 33.142 129.96 28.6878 129.96 20.1358C129.96 17.8197 131.223 14.6127 132.848 13.1873C136.097 9.80218 144.58 9.44585 147.649 12.4747Z" fill="#C8C8C8" fill-opacity="0.52"/>
<path d="M181.944 6.59518C176.89 11.0493 175.988 13.0092 175.988 19.9577C175.988 31.3603 182.666 37.9525 194.218 37.9525C201.258 37.9525 203.243 37.0617 207.756 32.073C215.337 23.8773 214.976 15.5035 206.853 7.48602C198.731 -0.531483 190.247 -0.887817 181.944 6.59518ZM201.799 12.4747C203.063 13.7218 203.965 17.2852 203.965 20.4922C203.965 25.1245 202.882 26.9062 199.633 28.3315C189.345 32.9638 181.042 24.7682 185.735 14.6127C187.179 11.4057 188.984 10.3367 193.677 10.3367C196.926 10.3367 200.536 11.2275 201.799 12.4747Z" fill="#C8C8C8" fill-opacity="0.52"/>
<path d="M240.968 3.03185C229.235 7.84235 226.167 24.0555 235.192 32.9638C239.163 36.8835 241.87 37.9525 248.368 37.9525C255.408 37.9525 257.393 37.0617 261.906 32.073C269.487 23.8773 269.126 15.5035 261.003 7.48601C254.686 1.25018 248.729 0.00301339 240.968 3.03185ZM255.949 12.4747C257.213 13.7218 258.115 17.2852 258.115 20.4922C258.115 25.1245 257.032 26.9062 253.783 28.3315C243.495 32.9638 235.192 24.7682 239.885 14.6127C241.329 11.4057 243.134 10.3367 247.827 10.3367C251.076 10.3367 254.686 11.2275 255.949 12.4747Z" fill="#C8C8C8" fill-opacity="0.52"/>
<path d="M290.244 6.59518C285.19 11.0493 284.288 13.0092 284.288 19.9577C284.288 31.3603 290.966 37.9525 302.518 37.9525C309.558 37.9525 311.543 37.0617 316.056 32.073C323.637 23.8773 323.276 15.5035 315.153 7.48602C307.031 -0.531483 298.547 -0.887817 290.244 6.59518ZM310.099 12.4747C311.363 13.7218 312.265 17.2852 312.265 20.4922C312.265 25.1245 311.182 26.9062 307.933 28.3315C297.645 32.9638 289.342 24.7682 294.035 14.6127C295.479 11.4057 297.284 10.3367 301.977 10.3367C305.226 10.3367 308.836 11.2275 310.099 12.4747Z" fill="#C8C8C8" fill-opacity="0.52"/>
<path d="M344.394 6.59518C339.34 11.0493 338.438 13.0092 338.438 19.9577C338.438 31.3603 345.116 37.9525 356.668 37.9525C363.708 37.9525 365.693 37.0617 370.206 32.073C377.787 23.8773 377.426 15.5035 369.303 7.48602C361.181 -0.531483 352.697 -0.887817 344.394 6.59518ZM364.249 12.4747C365.513 13.7218 366.415 17.107 366.415 20.1358C366.415 26.9062 363.527 29.935 357.21 29.935C348.365 29.935 344.033 21.9175 348.365 13.7218C350.531 9.80218 360.639 8.91135 364.249 12.4747Z" fill="#C8C8C8" fill-opacity="0.52"/>
<path d="M404.32 2.67559C399.086 4.63543 393.49 11.0494 392.407 16.3944C388.978 34.9238 411.901 45.7919 424.717 31.7168C431.756 23.8774 431.395 15.3254 423.453 7.48609C417.497 1.60659 411.54 0.00309346 404.32 2.67559ZM418.399 12.4748C419.663 13.7219 420.565 17.2853 420.565 20.4923C420.565 25.1246 419.482 26.9063 416.233 28.3316C405.945 32.9639 397.642 24.7683 402.335 14.6128C403.779 11.4058 405.584 10.3368 410.277 10.3368C413.526 10.3368 417.136 11.2276 418.399 12.4748Z" fill="#C8C8C8" fill-opacity="0.52"/>
<path d="M457.567 3.03185C445.835 7.84235 442.766 24.0555 451.791 32.9638C455.762 36.8835 458.47 37.9525 464.968 37.9525C472.007 37.9525 473.993 37.0617 478.505 32.073C486.086 23.8773 485.725 15.5035 477.603 7.48601C471.285 1.25018 465.329 0.00301339 457.567 3.03185ZM472.549 12.4747C476.159 16.038 475.256 26.0153 471.285 28.1533C463.163 32.2512 454.86 28.3315 454.86 20.1358C454.86 17.8197 456.123 14.6127 457.748 13.1873C460.997 9.80218 469.48 9.44585 472.549 12.4747Z" fill="#C8C8C8" fill-opacity="0.52"/>
<path d="M506.844 6.59518C501.79 11.0493 500.887 13.0092 500.887 19.9577C500.887 31.3603 507.566 37.9525 519.118 37.9525C526.157 37.9525 528.143 37.0617 532.655 32.073C540.236 23.8773 539.875 15.5035 531.753 7.48602C523.63 -0.531483 515.147 -0.887817 506.844 6.59518ZM526.699 12.4747C530.309 16.038 529.406 26.0153 525.435 28.1533C517.313 32.2512 509.01 28.3315 509.01 20.1358C509.01 17.8197 510.273 14.6127 511.898 13.1873C515.147 9.80218 523.63 9.44585 526.699 12.4747Z" fill="#C8C8C8" fill-opacity="0.52"/>
<path d="M561.355 6.2388C553.954 12.831 552.691 21.5611 557.745 29.5786C564.604 40.4468 578.863 41.5158 587.347 31.5385C594.206 23.521 593.664 15.1471 585.903 7.48597C577.961 -0.353366 569.297 -0.709699 561.355 6.2388ZM580.849 12.4746C582.112 13.7218 583.015 17.107 583.015 20.1358C583.015 26.9061 580.127 29.935 573.809 29.935C567.672 29.935 563.16 25.659 563.16 20.1358C563.16 17.8196 564.423 14.6126 566.048 13.1873C569.297 9.80213 577.78 9.4458 580.849 12.4746Z" fill="#C8C8C8" fill-opacity="0.52"/>
<path d="M615.685 6.06063C605.577 14.4345 606.66 28.5096 617.671 35.28C625.793 40.2686 634.638 39.0215 641.316 31.7166C648.356 23.8773 647.995 15.3253 640.053 7.48597C632.291 -0.1752 623.808 -0.7097 615.685 6.06063ZM634.999 12.4746C636.262 13.7218 637.165 17.107 637.165 20.1358C637.165 26.9061 634.277 29.935 627.959 29.935C619.115 29.935 614.783 21.9175 619.115 13.7218C621.281 9.80213 631.389 8.9113 634.999 12.4746Z" fill="#C8C8C8" fill-opacity="0.52"/>
<path d="M674.168 3.03179C663.879 7.3078 659.908 19.9576 666.045 29.5786C672.904 40.4468 687.164 41.5158 695.647 31.5385C702.506 23.521 701.965 15.1471 694.203 7.48596C687.886 1.25013 681.929 0.00296098 674.168 3.03179ZM689.149 12.4746C692.759 16.038 691.857 26.0153 687.886 28.1533C679.763 32.2511 671.46 28.3315 671.46 20.1358C671.46 17.8196 672.724 14.6126 674.348 13.1873C677.597 9.80213 686.081 9.4458 689.149 12.4746Z" fill="#C8C8C8" fill-opacity="0.52"/>
<path d="M723.805 6.2388C716.404 12.831 715.141 21.5611 720.195 29.5786C727.054 40.4468 741.313 41.5158 749.797 31.5385C756.656 23.521 756.114 15.1471 748.353 7.48597C740.411 -0.353366 731.747 -0.709699 723.805 6.2388ZM743.299 12.4746C746.909 16.038 746.006 26.0153 742.035 28.1533C733.913 32.2511 725.61 28.3315 725.61 20.1358C725.61 17.8196 726.873 14.6126 728.498 13.1873C731.747 9.80213 740.23 9.4458 743.299 12.4746Z" fill="#C8C8C8" fill-opacity="0.52"/>
<path d="M777.955 6.2388C770.555 12.831 769.291 21.5611 774.345 29.5786C781.204 40.4468 795.464 41.5158 803.947 31.5385C810.806 23.521 810.265 15.1471 802.503 7.48597C794.561 -0.353366 785.897 -0.709699 777.955 6.2388ZM797.449 12.4746C798.713 13.7218 799.615 17.107 799.615 20.1358C799.615 26.9061 796.727 29.935 790.41 29.935C784.273 29.935 779.76 25.659 779.76 20.1358C779.76 17.8196 781.024 14.6126 782.648 13.1873C785.897 9.80213 794.381 9.4458 797.449 12.4746Z" fill="#C8C8C8" fill-opacity="0.52"/>
<path d="M837.52 2.67557C827.412 6.2389 822.538 18.5324 827.412 27.9752C833.729 39.9124 849.433 41.8722 858.097 31.5386C864.956 23.5211 864.414 15.1472 856.653 7.48607C850.696 1.60657 844.74 0.00306723 837.52 2.67557ZM851.96 13.0092C853.223 14.4346 854.306 17.6416 854.306 20.1359C854.306 26.1936 850.696 29.9351 844.559 29.9351C835.715 29.9351 831.383 22.0957 835.715 13.7219C838.061 9.62407 848.711 9.08957 851.96 13.0092Z" fill="#C8C8C8" fill-opacity="0.52"/>
<path d="M891.67 2.67557C881.562 6.2389 876.688 18.5324 881.562 27.9752C887.879 39.9124 903.583 41.8722 912.247 31.5386C919.106 23.5211 918.564 15.1472 910.803 7.48607C904.846 1.60657 898.89 0.00306723 891.67 2.67557ZM906.11 13.0092C909.359 16.9289 908.817 24.7682 905.027 27.6189C897.807 32.7857 888.06 28.5097 888.06 20.1359C888.06 17.8197 889.323 14.6127 890.948 13.1874C894.558 9.62407 903.222 9.4459 906.11 13.0092Z" fill="#C8C8C8" fill-opacity="0.52"/>
<path d="M940.586 6.06066C930.478 14.4345 931.561 28.5097 942.571 35.28C951.416 40.625 957.733 39.9123 964.953 32.7857C981.92 16.038 958.997 -9.26167 940.586 6.06066ZM959.899 12.4747C963.509 16.038 962.607 26.0153 958.636 28.1533C950.513 32.2512 942.21 28.3315 942.21 20.1358C942.21 17.8197 943.474 14.6127 945.098 13.1873C948.347 9.80216 956.831 9.44583 959.899 12.4747Z" fill="#C8C8C8" fill-opacity="0.52"/>
<path d="M999.067 3.03179C988.779 7.3078 984.808 19.9576 990.945 29.5786C997.804 40.4468 1012.06 41.5158 1020.55 31.5385C1027.41 23.521 1026.86 15.1471 1019.1 7.48596C1012.79 1.25013 1006.83 0.00296098 999.067 3.03179ZM1014.05 12.4746C1015.31 13.7218 1016.21 17.107 1016.21 20.1358C1016.21 26.9061 1013.33 29.935 1007.01 29.935C1000.87 29.935 996.36 25.659 996.36 20.1358C996.36 17.8196 997.623 14.6126 999.248 13.1873C1002.5 9.80213 1010.98 9.4458 1014.05 12.4746Z" fill="#C8C8C8" fill-opacity="0.52"/>
<path d="M1054.12 2.67555C1048.7 4.63539 1043.29 11.0494 1042.21 16.5726C1040.22 27.6189 1050.33 38.8434 1062.42 38.8434C1069.28 38.8434 1079.39 28.3316 1079.39 21.2049C1079.39 7.48605 1066.75 -1.95678 1054.12 2.67555ZM1068.2 12.4747C1069.46 13.7219 1070.36 17.1071 1070.36 20.1359C1070.36 26.9062 1067.48 29.9351 1061.16 29.9351C1055.02 29.9351 1050.51 25.6591 1050.51 20.1359C1050.51 17.8197 1051.77 14.6127 1053.4 13.1874C1056.65 9.80222 1065.13 9.44589 1068.2 12.4747Z" fill="#C8C8C8" fill-opacity="0.52"/>
<path d="M0 86.0575V90.5117H32.49C50.3595 90.5117 64.98 91.0462 64.98 91.7589C64.98 92.4715 55.4135 102.627 43.8615 114.03L22.5625 135.053L44.2225 156.433L65.8825 177.813H32.851H0V183.158V188.503H541.5H1083V183.158V177.813H1049.25H1015.31L1036.97 156.433L1058.45 135.232L1054.84 131.312C1053.04 129.352 1043.47 119.909 1033.9 110.466C1024.16 101.024 1016.22 92.8279 1016.22 91.937C1016.22 91.2244 1031.2 90.5117 1049.61 90.5117H1083V86.0575V81.6034H541.5H0V86.0575ZM200.355 91.7589C200.355 92.4715 190.789 102.627 179.237 114.03L157.938 135.053L179.598 156.433L201.258 177.813H134.473H67.6875L89.3475 156.433L111.008 135.053L89.7085 114.03C78.1565 102.627 68.59 92.4715 68.59 91.7589C68.59 91.0462 98.192 90.5117 134.473 90.5117C170.753 90.5117 200.355 91.0462 200.355 91.7589ZM335.73 91.7589C335.73 92.4715 326.164 102.627 314.612 114.03L293.313 135.053L314.973 156.433L336.633 177.813H269.848H203.063L224.723 156.433L246.383 135.053L225.084 114.03C213.532 102.627 203.965 92.4715 203.965 91.7589C203.965 91.0462 233.567 90.5117 269.848 90.5117C306.128 90.5117 335.73 91.0462 335.73 91.7589ZM471.105 91.7589C471.105 92.4715 461.539 102.627 449.987 114.03L428.688 135.053L450.348 156.433L472.008 177.813H405.223H338.438L360.098 156.433L381.758 135.053L360.459 114.03C348.907 102.627 339.34 92.4715 339.34 91.7589C339.34 91.0462 368.942 90.5117 405.223 90.5117C441.503 90.5117 471.105 91.0462 471.105 91.7589ZM606.48 91.7589C606.48 92.4715 596.914 102.627 585.362 114.03L564.063 135.053L585.723 156.433L607.383 177.813H540.598H473.813L495.473 156.433L517.133 135.053L495.834 114.03C484.282 102.627 474.715 92.4715 474.715 91.7589C474.715 91.0462 504.317 90.5117 540.598 90.5117C576.878 90.5117 606.48 91.0462 606.48 91.7589ZM741.855 91.7589C741.855 92.4715 732.289 102.627 720.737 114.03L699.438 135.053L721.098 156.433L742.758 177.813H675.973H609.188L630.848 156.433L652.508 135.053L631.209 114.03C619.657 102.627 610.09 92.4715 610.09 91.7589C610.09 91.0462 639.692 90.5117 675.973 90.5117C712.253 90.5117 741.855 91.0462 741.855 91.7589ZM877.23 91.7589C877.23 92.4715 867.664 102.627 856.112 114.03L834.813 135.053L856.473 156.433L878.133 177.813H811.348H744.563L766.223 156.433L787.883 135.053L766.584 114.03C755.032 102.627 745.465 92.4715 745.465 91.7589C745.465 91.0462 775.067 90.5117 811.348 90.5117C847.628 90.5117 877.23 91.0462 877.23 91.7589ZM992.75 112.783L970.188 135.053L991.848 156.433L1013.51 177.813H946.723H879.938L901.598 156.433L923.258 135.053L901.959 114.03C890.407 102.627 880.84 92.4715 880.84 91.7589C880.84 91.0462 911.164 90.5117 947.986 90.5117H1015.31L992.75 112.783ZM229.235 135.053C229.235 135.588 223.098 142.002 215.698 149.307L202.16 162.669L188.262 148.772L174.183 135.053L188.623 120.8L202.882 106.725L216.059 120.444C223.279 127.927 229.235 134.519 229.235 135.053ZM364.61 135.053C364.61 135.588 358.473 142.002 351.073 149.307L337.535 162.669L323.637 148.772L309.558 135.053L323.998 120.8L338.438 106.369L351.614 120.087C358.654 127.749 364.61 134.341 364.61 135.053ZM499.985 134.875C499.985 135.588 493.848 142.002 486.448 149.307L472.91 162.669L459.012 148.772L444.933 135.053L459.373 120.8L473.813 106.369L486.989 120.087C494.029 127.57 499.985 134.163 499.985 134.875ZM635.36 134.875C635.36 135.588 629.223 142.002 621.823 149.307L608.285 162.669L594.387 148.772L580.308 135.053L594.748 120.622L609.188 106.369L622.364 120.087C629.404 127.57 635.36 134.341 635.36 134.875ZM770.735 134.163C770.735 135.232 764.598 142.002 757.198 149.307L743.66 162.669L729.762 148.772L715.683 135.053L730.123 120.8L744.563 106.547L757.559 119.375C764.779 126.501 770.735 133.272 770.735 134.163ZM906.11 134.163C906.11 135.232 899.973 142.002 892.573 149.307L879.035 162.669L865.137 148.772L851.058 135.053L865.498 120.8L879.938 106.547L892.934 119.375C900.154 126.501 906.11 133.094 906.11 134.163ZM1041.49 134.341C1041.49 135.232 1035.35 142.002 1027.95 149.307L1014.41 162.669L1000.51 148.772L986.433 135.053L1000.87 120.8L1015.31 106.369L1028.49 119.553C1035.53 126.858 1041.49 133.628 1041.49 134.341ZM81.4055 121.156C88.2645 128.283 93.86 134.519 93.86 135.053C93.86 135.588 87.723 142.002 80.3225 149.307L66.785 162.669L52.8865 148.772L38.8075 135.053L52.345 121.691C59.7455 114.386 66.424 108.328 67.3265 108.328C68.0485 108.328 74.366 114.208 81.4055 121.156Z" fill="#C8C8C8" fill-opacity="0.52"/>
<path d="M116.603 118.128L134.472 134.875L117.866 150.376C108.661 158.75 101.08 166.411 101.08 167.302C101.08 168.192 115.881 168.905 134.472 168.905C153.425 168.905 167.865 168.192 167.865 167.302C167.865 166.411 160.284 158.75 151.259 150.198L134.472 134.697L152.522 117.949L170.572 101.202H134.653H98.7334L116.603 118.128Z" fill="#C8C8C8" fill-opacity="0.52"/>
<path d="M252.159 118.128L269.848 134.875L253.061 150.554C243.856 159.284 236.275 166.767 236.455 167.48C236.455 168.371 252.159 168.905 271.292 168.905L305.948 168.727L287.898 151.801L269.848 134.697L287.898 118.128L305.948 101.38L270.209 101.202H234.289L252.159 118.128Z" fill="#C8C8C8" fill-opacity="0.52"/>
<path d="M387.534 118.128L405.223 134.875L388.436 150.554C379.231 159.284 371.65 166.767 371.83 167.48C371.83 169.44 438.615 169.261 438.615 167.302C438.615 166.411 431.034 158.75 422.009 150.198L405.223 134.875L423.273 118.128L441.323 101.38L405.584 101.202H369.664L387.534 118.128Z" fill="#C8C8C8" fill-opacity="0.52"/>
<path d="M522.909 118.128L540.598 134.875L523.811 150.554C514.606 159.284 507.025 166.767 507.205 167.48C507.205 168.371 522.909 168.905 542.042 168.905L576.698 168.727L558.648 151.623L540.778 134.697L558.648 117.949L576.698 101.38L540.959 101.202H505.039L522.909 118.128Z" fill="#C8C8C8" fill-opacity="0.52"/>
<path d="M642.58 101.914C642.58 102.449 650.161 110.11 659.367 119.018L675.973 135.053L659.186 150.732C649.981 159.284 642.58 166.767 642.58 167.48C642.58 168.371 658.284 168.905 677.417 168.905L712.073 168.727L694.023 151.623L676.153 134.697L694.023 117.949L712.073 101.38L677.417 101.202C658.284 101.202 642.58 101.558 642.58 101.914Z" fill="#C8C8C8" fill-opacity="0.52"/>
<path d="M777.955 102.093C777.955 102.627 785.536 110.288 794.742 119.018L811.348 135.053L794.561 150.554C785.356 159.284 777.775 166.767 777.955 167.48C777.955 168.371 793.659 168.905 812.792 168.905L847.448 168.727L829.578 151.623L811.709 134.341L829.578 117.771L847.448 101.38L812.792 101.202C793.659 101.202 777.955 101.558 777.955 102.093Z" fill="#C8C8C8" fill-opacity="0.52"/>
<path d="M929.034 118.128L946.723 135.053L929.936 150.732C920.731 159.284 913.33 166.767 913.33 167.48C913.33 168.371 929.034 168.905 948.167 168.905L982.823 168.727L964.953 151.623L947.084 134.341L964.953 117.771L982.823 101.38L947.084 101.202H911.525L929.034 118.128Z" fill="#C8C8C8" fill-opacity="0.52"/>
<path d="M195.301 128.283C189.886 133.628 194.94 143.962 202.882 143.962C208.117 143.962 211.185 140.755 211.185 135.053C211.185 129.174 208.117 126.145 202.16 126.145C199.633 126.145 196.565 127.036 195.301 128.283Z" fill="#C8C8C8" fill-opacity="0.52"/>
<path d="M330.676 128.283C325.261 133.628 330.315 143.962 338.257 143.962C343.492 143.962 346.56 140.755 346.56 135.053C346.56 129.174 343.492 126.145 337.535 126.145C335.008 126.145 331.94 127.036 330.676 128.283Z" fill="#C8C8C8" fill-opacity="0.52"/>
<path d="M466.051 128.283C462.983 131.312 463.344 137.904 466.773 141.111C470.022 144.496 476.701 144.853 479.769 141.824C481.033 140.577 481.935 137.548 481.935 135.053C481.935 132.559 481.033 129.53 479.769 128.283C478.506 127.036 475.437 126.145 472.91 126.145C470.383 126.145 467.315 127.036 466.051 128.283Z" fill="#C8C8C8" fill-opacity="0.52"/>
<path d="M601.426 128.283C598.358 131.312 598.719 137.904 602.148 141.111C605.397 144.496 612.076 144.853 615.144 141.824C616.408 140.577 617.31 137.548 617.31 135.053C617.31 132.559 616.408 129.53 615.144 128.283C613.881 127.036 610.812 126.145 608.285 126.145C605.758 126.145 602.69 127.036 601.426 128.283Z" fill="#C8C8C8" fill-opacity="0.52"/>
<path d="M736.801 128.283C733.733 131.312 734.094 137.904 737.523 141.111C740.772 144.496 747.451 144.853 750.519 141.824C751.783 140.577 752.685 137.548 752.685 135.053C752.685 132.559 751.783 129.53 750.519 128.283C749.256 127.036 746.187 126.145 743.66 126.145C741.133 126.145 738.065 127.036 736.801 128.283Z" fill="#C8C8C8" fill-opacity="0.52"/>
<path d="M872.176 128.283C869.107 131.312 869.468 137.904 872.898 141.111C876.147 144.496 882.825 144.853 885.894 141.824C887.157 140.577 888.06 137.548 888.06 135.053C888.06 132.559 887.157 129.53 885.894 128.283C884.63 127.036 881.562 126.145 879.035 126.145C876.508 126.145 873.439 127.036 872.176 128.283Z" fill="#C8C8C8" fill-opacity="0.52"/>
<path d="M1007.19 129.887C1002.5 138.26 1011.7 147.703 1019.64 142.715C1023.25 140.398 1024.34 132.025 1021.45 128.639C1018.2 124.72 1009.54 125.432 1007.19 129.887Z" fill="#C8C8C8" fill-opacity="0.52"/>
<path d="M59.7456 128.639C55.7746 133.272 58.1211 140.933 63.7166 142.893C70.2146 145.209 74.7271 142.536 75.4491 136.122C76.1711 129.887 72.9221 126.145 66.7851 126.145C64.0776 126.145 60.8286 127.214 59.7456 128.639Z" fill="#C8C8C8" fill-opacity="0.52"/>
<path d="M0 117.415V133.45L17.1475 117.949C26.5335 109.219 34.295 102.092 34.295 101.736C34.295 101.38 26.5335 101.202 17.1475 101.202H0V117.415Z" fill="#C8C8C8" fill-opacity="0.52"/>
<path d="M1062.24 115.633C1083.36 136.657 1083 136.657 1083 117.237V101.202H1065.49H1047.8L1062.24 115.633Z" fill="#C8C8C8" fill-opacity="0.52"/>
<path d="M1064.59 151.979L1047.26 168.905H1065.13H1083V151.979C1083 142.715 1082.82 135.053 1082.64 135.053C1082.28 135.053 1074.16 142.715 1064.59 151.979Z" fill="#C8C8C8" fill-opacity="0.52"/>
<path d="M0 152.692V168.905H17.5085H35.017L26.1725 159.819C21.1185 154.83 13.357 147.525 8.664 143.605L0 136.479V152.692Z" fill="#C8C8C8" fill-opacity="0.52"/>
<path d="M8.30305 232.867C9.20555 233.579 19.8551 242.131 31.9486 251.574L53.9696 268.856L77.7956 250.149L101.441 231.263H93.3186C86.0986 231.263 83.7521 232.51 69.6731 243.913L53.9696 256.385L38.2661 243.913C24.1871 232.51 21.8406 231.263 14.6206 231.263C9.92755 231.263 7.22005 231.976 8.30305 232.867Z" fill="#C8C8C8" fill-opacity="0.52"/>
<path d="M116.603 232.689C117.506 233.579 128.155 241.953 140.249 251.574L162.27 268.856L186.096 250.149L209.741 231.263H201.799C194.579 231.263 192.233 232.51 177.973 243.735L162.27 256.207L146.566 243.735C132.487 232.51 130.141 231.263 122.921 231.263C118.408 231.263 115.52 231.976 116.603 232.689Z" fill="#C8C8C8" fill-opacity="0.52"/>
<path d="M224.903 232.867C225.806 233.579 236.455 242.131 248.549 251.574L270.57 268.856L294.396 250.149L318.041 231.263H310.28C303.24 231.263 300.533 232.689 286.454 243.735L270.389 256.028L254.866 243.735C240.787 232.51 238.441 231.263 231.221 231.263C226.528 231.263 223.82 231.976 224.903 232.867Z" fill="#C8C8C8" fill-opacity="0.52"/>
<path d="M333.203 232.689C334.105 233.579 344.755 241.953 356.848 251.574L379.05 268.856L402.695 249.971L426.341 231.263H418.399C411.359 231.263 409.013 232.51 394.753 243.735L378.869 256.207L363.166 243.735C349.087 232.51 346.74 231.263 339.52 231.263C335.008 231.263 332.12 231.976 333.203 232.689Z" fill="#C8C8C8" fill-opacity="0.52"/>
<path d="M441.503 232.689C442.406 233.401 453.055 241.953 465.149 251.574L487.17 268.856L510.996 250.149L534.641 231.263H526.88C519.84 231.263 517.133 232.689 503.054 243.735L487.17 256.207L471.466 243.735C457.387 232.51 455.041 231.263 447.821 231.263C443.308 231.263 440.42 231.976 441.503 232.689Z" fill="#C8C8C8" fill-opacity="0.52"/>
<path d="M549.803 232.689C550.706 233.579 561.355 241.953 573.449 251.574L595.65 268.856L619.296 249.971L642.941 231.263H634.999C627.96 231.263 625.613 232.51 611.354 243.735L595.65 256.385L579.947 243.735C565.687 232.51 563.341 231.263 556.121 231.263C551.608 231.263 548.72 231.976 549.803 232.689Z" fill="#C8C8C8" fill-opacity="0.52"/>
<path d="M657.2 231.976C657.561 232.332 668.211 240.706 681.026 250.684L703.95 268.678L727.595 249.971L751.241 231.263H743.299C736.259 231.263 733.913 232.511 719.653 243.735L703.95 256.385L688.246 243.735C673.987 232.511 671.64 231.263 664.42 231.263C660.088 231.263 656.839 231.62 657.2 231.976Z" fill="#C8C8C8" fill-opacity="0.52"/>
<path d="M765.501 231.976C765.862 232.332 776.511 240.706 789.327 250.684L812.25 268.678L835.896 249.971L859.541 231.263H851.599C844.56 231.263 842.213 232.511 827.954 243.735L812.25 256.385L796.547 243.735C782.287 232.511 779.941 231.263 772.721 231.263C768.389 231.263 765.14 231.62 765.501 231.976Z" fill="#C8C8C8" fill-opacity="0.52"/>
<path d="M896.905 249.971L920.55 268.678L943.474 250.684C956.289 240.706 966.939 232.332 967.3 231.976C967.661 231.62 964.412 231.263 960.08 231.263C952.86 231.263 950.513 232.511 936.254 243.735L920.55 256.385L904.847 243.735C890.587 232.511 888.241 231.263 881.201 231.263H873.259L896.905 249.971Z" fill="#C8C8C8" fill-opacity="0.52"/>
<path d="M982.101 231.976C982.462 232.332 993.111 240.706 1005.93 250.684L1028.85 268.678L1052.5 249.971L1076.14 231.263H1068.2C1061.16 231.263 1058.81 232.511 1044.55 243.735L1028.85 256.385L1013.15 243.735C998.887 232.511 996.541 231.263 989.321 231.263C984.989 231.263 981.74 231.62 982.101 231.976Z" fill="#C8C8C8" fill-opacity="0.52"/>
<path d="M0.1805 246.764C0.1805 253.178 1.083 254.247 15.7035 265.471C29.7825 276.34 32.3095 277.587 39.5295 277.587C43.8615 277.587 47.1105 277.409 46.7495 277.052C46.3885 276.696 35.739 268.144 23.104 258.167L0 239.994L0.1805 246.764Z" fill="#C8C8C8" fill-opacity="0.52"/>
<path d="M84.4741 258.523L61.3701 276.696L68.7706 277.23C75.2686 277.765 77.2541 276.696 92.0551 265.115L108.3 252.287L123.823 264.937C138.083 276.518 140.249 277.587 147.469 277.587H155.591L131.946 258.879C118.95 248.546 108.12 240.172 107.939 240.172C107.578 240.35 97.1091 248.546 84.4741 258.523Z" fill="#C8C8C8" fill-opacity="0.52"/>
<path d="M193.135 258.167C180.68 268.144 170.211 276.518 169.85 276.874C169.489 277.23 172.738 277.587 177.07 277.587C184.29 277.587 186.637 276.34 200.896 265.115L216.6 252.465L232.303 265.115C246.563 276.34 248.909 277.587 255.949 277.587H263.891L240.245 258.879C227.249 248.546 216.419 240.172 216.239 240.172C215.878 240.35 205.589 248.367 193.135 258.167Z" fill="#C8C8C8" fill-opacity="0.52"/>
<path d="M301.074 258.523L277.97 276.696L285.37 277.23C291.868 277.765 293.854 276.696 308.655 265.115L324.719 252.465L340.603 264.937C354.863 276.34 357.209 277.587 364.249 277.587H372.191L348.545 258.879C335.549 248.546 324.719 240.172 324.539 240.35C324.178 240.35 313.709 248.546 301.074 258.523Z" fill="#C8C8C8" fill-opacity="0.52"/>
<path d="M413.345 255.494C402.876 263.868 392.407 272.242 389.88 274.202L385.367 277.409L393.49 277.587C400.89 277.587 403.056 276.518 417.496 265.115L433.2 252.465L448.903 265.115C463.163 276.34 465.509 277.587 472.549 277.587H480.491L456.845 258.879C443.849 248.546 433.019 240.172 432.839 240.172C432.478 240.172 423.814 247.12 413.345 255.494Z" fill="#C8C8C8" fill-opacity="0.52"/>
<path d="M521.825 255.494C511.356 263.868 500.887 272.242 498.36 274.023L493.667 277.409L501.79 277.587C509.19 277.587 511.356 276.34 525.616 264.937L541.5 252.465L557.203 265.115C571.463 276.34 573.809 277.587 580.849 277.587H588.791L565.145 258.879C552.149 248.546 541.319 240.172 541.139 240.35C540.778 240.35 532.114 247.12 521.825 255.494Z" fill="#C8C8C8" fill-opacity="0.52"/>
<path d="M641.677 246.229C637.706 249.436 627.237 257.81 618.573 264.759L602.689 277.587H610.451C617.49 277.587 620.017 276.161 634.096 265.115L649.8 252.465L665.503 265.115C679.763 276.34 682.109 277.587 689.149 277.587H697.091L673.445 258.879C660.449 248.546 649.619 240.172 649.439 240.172C649.078 240.35 645.648 243.022 641.677 246.229Z" fill="#C8C8C8" fill-opacity="0.52"/>
<path d="M738.245 255.494C727.776 263.868 717.307 272.242 714.78 274.202L710.268 277.409L718.39 277.587C725.791 277.587 727.957 276.518 742.397 265.115L758.1 252.465L773.804 265.115C788.063 276.34 790.41 277.587 797.449 277.587H805.391L781.746 258.879C768.75 248.546 757.92 240.172 757.739 240.35C757.378 240.35 748.714 247.298 738.245 255.494Z" fill="#C8C8C8" fill-opacity="0.52"/>
<path d="M856.472 247.655C851.599 251.574 840.949 259.948 833.188 266.184L818.928 277.587H826.87C834.09 277.587 836.437 276.34 850.696 265.115L866.4 252.465L882.103 265.115C896.363 276.34 898.709 277.587 905.749 277.587H913.691L890.045 258.879C877.049 248.546 866.219 240.172 866.039 240.35C865.678 240.35 861.526 243.557 856.472 247.655Z" fill="#C8C8C8" fill-opacity="0.52"/>
<path d="M964.592 247.833C959.538 251.931 949.069 260.305 941.488 266.362L927.409 277.587H935.351C942.39 277.587 944.737 276.34 958.996 265.115L974.7 252.465L990.403 265.115C1004.48 276.161 1007.01 277.587 1014.05 277.587H1021.81L1011.34 269.035C993.111 254.425 974.88 240.172 974.339 240.35C973.978 240.35 969.646 243.735 964.592 247.833Z" fill="#C8C8C8" fill-opacity="0.52"/>
<path d="M1059.35 258.701L1036.43 276.696L1043.65 277.23C1049.61 277.765 1052.32 276.696 1060.08 270.638C1080.65 255.138 1083.36 252.109 1082.64 246.229L1082.1 240.706L1059.35 258.701Z" fill="#C8C8C8" fill-opacity="0.52"/>
<path d="M0 325.692V331.037H43.5005H87.001L83.03 337.273L79.059 343.508H91.8745C98.914 343.508 104.69 344.043 104.69 344.577C104.69 345.29 103.066 348.497 100.9 351.704L97.109 357.762H111.008H124.906L120.935 363.998L116.964 370.233H129.78C136.819 370.233 142.595 370.768 142.595 371.302C142.595 372.015 140.971 375.222 138.805 378.429L135.014 384.487H148.913H162.811L159.021 390.544C156.855 393.751 155.23 396.958 155.23 397.671C155.23 398.206 161.006 398.74 168.046 398.74H180.861L176.89 404.976L172.919 411.212H186.457C199.633 411.212 200.175 411.034 204.687 405.332L209.38 399.631L195.843 399.096C188.442 398.74 182.305 398.027 182.305 397.315C182.305 396.602 183.93 394.108 185.915 391.613C187.901 389.119 189.525 386.625 189.525 385.734C189.525 385.021 183.93 384.487 176.89 384.487C170.031 384.487 164.255 383.952 164.255 383.061C164.255 382.349 165.88 379.854 167.865 377.36C169.851 374.866 171.475 372.371 171.475 371.481C171.475 370.768 165.338 370.233 157.757 370.233H144.22L147.83 365.067C149.996 362.216 151.62 359.365 151.62 358.831C151.62 358.296 146.025 357.762 138.985 357.762C132.126 357.762 126.35 357.227 126.35 356.336C126.35 355.624 127.975 353.129 129.96 350.635C131.946 348.141 133.57 345.646 133.57 344.756C133.57 344.043 127.433 343.508 119.852 343.508H106.315L111.188 337.273C115.881 331.215 116.242 331.037 128.877 331.037H141.693L157.938 343.152C166.963 349.744 194.94 370.233 220.21 388.941C245.48 407.47 267.14 423.327 268.223 424.218C269.667 424.931 294.396 407.827 334.647 378.251L398.725 331.037H412.262C425.078 331.037 425.98 331.215 429.41 336.204C431.576 339.054 433.2 341.905 433.2 342.439C433.2 342.974 427.605 343.508 420.565 343.508C413.706 343.508 407.93 343.865 407.93 344.221C407.93 344.756 409.555 347.963 411.721 351.348L415.511 357.762H401.613H387.895L391.505 362.929C393.671 365.779 395.295 368.63 395.295 369.164C395.295 369.699 389.7 370.233 382.66 370.233C375.801 370.233 370.025 370.768 370.025 371.481C370.025 372.371 371.65 374.866 373.635 377.36C375.621 379.854 377.245 382.349 377.245 383.061C377.245 383.952 371.65 384.487 364.61 384.487C357.751 384.487 351.975 385.021 351.975 385.556C351.975 386.268 353.6 389.475 355.766 392.682L359.556 398.74H345.658H331.94L335.55 403.907C337.716 406.758 339.34 409.608 339.34 410.143C339.34 410.677 333.745 411.212 326.705 411.212C319.846 411.212 314.07 411.746 314.07 412.281C314.07 412.993 315.695 416.2 317.861 419.407L321.651 425.465H307.753H294.035L297.645 430.632C299.811 433.483 301.435 436.333 301.435 436.868C301.435 437.402 295.84 437.937 288.8 437.937C281.941 437.937 276.165 438.471 276.165 439.184C276.165 440.075 277.79 442.569 279.775 445.063C281.761 447.558 283.385 450.052 283.385 450.765C283.385 451.656 277.79 452.19 270.75 452.19C263.891 452.19 258.115 451.656 258.115 451.121C258.115 450.587 259.74 447.914 261.725 445.063C263.711 442.391 264.794 439.718 264.072 439.006C263.53 438.471 257.393 437.937 250.534 437.937H238.08L241.69 432.77C243.856 429.919 245.48 427.069 245.48 426.534C245.48 426 239.885 425.465 232.845 425.465C225.986 425.465 220.21 424.931 220.21 424.04C220.21 423.327 221.835 420.833 223.82 418.338C225.806 415.844 227.43 413.35 227.43 412.459C227.43 411.746 221.474 411.212 214.073 411.212H200.897L196.023 418.338L191.33 425.465H205.048H218.766L214.795 431.701L210.824 437.937L220.932 438.115C226.528 438.293 231.943 438.649 232.845 438.828C233.928 439.006 235.192 439.362 235.733 439.54C236.275 439.54 235.011 442.569 232.845 445.954L228.874 452.19H242.773H256.671L252.881 458.248C250.715 461.455 249.09 464.662 249.09 465.374C249.09 465.909 258.837 466.443 270.75 466.443C282.663 466.443 292.41 466.087 292.41 465.731C292.41 465.196 290.786 461.989 288.62 458.604L284.829 452.19H298.728H312.446L308.836 447.023C306.67 444.173 305.045 441.144 305.045 440.075C305.045 439.184 310.821 438.649 317.68 438.649C324.72 438.828 330.315 438.471 330.315 437.937C330.315 437.402 328.691 435.086 326.705 432.592C324.72 430.097 323.095 427.603 323.095 426.712C323.095 426 328.871 425.465 335.73 425.465C342.77 425.465 348.365 424.931 348.365 424.396C348.365 423.683 346.741 420.476 344.575 417.269L340.784 411.212H354.683H368.401L364.791 406.045C362.625 403.194 361 400.344 361 399.809C361 399.275 366.776 398.74 373.635 398.74C380.675 398.74 386.27 398.206 386.27 397.671C386.27 396.958 384.646 393.751 382.48 390.544L378.689 384.487H392.588H406.306L402.696 379.32C396.739 371.124 397.642 369.877 409.374 370.233C425.439 370.59 424.897 370.946 420.565 363.998L416.594 357.762H429.41C436.449 357.762 442.225 357.227 442.225 356.693C442.225 355.98 440.601 352.773 438.435 349.566L434.644 343.508H448.543H462.261L458.651 338.342C456.485 335.491 454.86 332.64 454.86 332.106C454.86 331.571 493.848 331.037 541.681 331.037H628.501L624.53 337.273L620.559 343.508H633.375C647.454 343.508 648.537 344.577 642.4 352.06L638.609 356.871L652.508 357.405L666.226 357.94L662.435 363.998L658.464 370.233H671.28C678.319 370.233 684.095 370.768 684.095 371.302C684.095 372.015 682.471 375.222 680.305 378.429L676.514 384.487H690.413H704.311L700.521 390.544C698.355 393.751 696.73 396.958 696.73 397.671C696.73 398.206 702.506 398.74 709.546 398.74H722.361L718.39 404.976L714.419 411.212H728.318H742.216L738.426 417.269C736.26 420.476 734.635 423.683 734.635 424.396C734.635 424.931 740.411 425.465 747.451 425.465H760.266L756.476 431.523C754.31 434.73 752.685 437.759 752.685 438.293C752.685 438.649 758.461 438.828 765.32 438.828C772.36 438.649 777.955 439.006 777.955 439.54C777.955 440.075 776.331 443.282 774.345 446.311L770.735 452.19H784.453H798.171L794.381 458.248C792.215 461.455 790.59 464.662 790.59 465.374C790.59 465.909 800.337 466.443 812.25 466.443C824.163 466.443 833.91 465.909 833.91 465.374C833.91 464.662 832.286 461.455 830.12 458.248L826.329 452.19H840.228H853.946L850.336 447.023C844.56 439.006 845.282 438.115 859.18 438.471C866.22 438.649 871.815 438.471 871.815 438.115C871.815 437.759 870.191 434.73 868.025 431.523L864.234 425.465H877.05C884.089 425.465 889.865 424.931 889.865 424.04C889.865 423.327 888.241 420.298 886.255 417.448L882.645 412.103L896.363 411.212L910.081 410.321L906.291 405.51C904.125 403.016 902.5 400.344 902.5 399.809C902.5 399.275 908.276 398.74 915.135 398.74C922.175 398.74 927.77 398.206 927.77 397.671C927.77 396.958 926.146 393.751 923.98 390.544L920.189 384.487H934.088H947.806L944.196 379.32C938.239 371.124 939.142 370.233 953.221 370.233H966.036L962.065 363.998L958.094 357.762H970.91C977.949 357.762 983.725 357.227 983.725 356.693C983.725 355.98 982.101 352.773 979.935 349.566L976.144 343.508H990.043H1003.94L999.97 337.273L995.999 331.037H1039.5H1083V325.692V320.347H541.5H0V325.692ZM226.889 359.722C248.549 375.578 267.14 389.297 268.223 390.188C269.487 391.079 285.19 380.745 311.543 361.325C348.185 334.422 353.6 331.037 359.737 331.037C366.415 331.037 364.791 332.462 318.402 366.67C276.887 397.137 269.487 401.769 267.14 399.809C265.696 398.562 244.939 383.24 221.113 365.779C197.287 348.497 177.071 333.531 176.168 332.64C175.085 331.749 177.071 331.037 181.042 331.037C186.637 331.037 192.955 334.956 226.889 359.722ZM249.09 331.928C249.09 332.462 247.827 334.956 246.202 337.273C243.675 341.192 241.87 341.727 232.665 341.727C226.708 341.727 222.015 341.37 222.015 340.836C222.015 340.301 223.279 337.807 224.903 335.491C227.43 331.571 229.235 331.037 238.441 331.037C244.397 331.037 249.09 331.393 249.09 331.928ZM314.792 334.956C319.124 341.014 318.402 341.727 307.753 341.727C302.338 341.727 297.825 342.083 297.825 342.618C297.825 343.152 299.089 345.646 300.713 347.963L303.601 352.417H292.771C282.663 352.417 281.58 352.06 277.97 347.072L274.18 341.727H285.01C291.147 341.727 296.02 341.37 296.02 340.836C296.02 340.301 294.757 337.807 293.132 335.491L290.244 331.037H301.074C310.46 331.037 312.446 331.571 314.792 334.956ZM707.56 349.032C720.917 358.831 749.978 380.033 771.999 396.246L811.889 425.643L876.147 378.251L940.405 331.037H953.762C966.578 331.037 967.48 331.215 970.91 336.204C973.076 339.054 974.7 341.905 974.7 342.439C974.7 342.974 969.105 343.508 962.065 343.508C955.206 343.508 949.43 344.043 949.43 344.756C949.43 345.646 951.055 348.141 953.04 350.635C955.026 353.129 956.65 355.624 956.65 356.336C956.65 357.227 951.055 357.762 944.015 357.762C937.156 357.762 931.38 358.474 931.38 359.187C931.38 360.078 932.644 362.216 934.088 364.176C935.532 365.957 936.795 368.095 936.795 368.808C936.795 369.699 931.2 370.233 924.16 370.233C917.301 370.233 911.525 370.768 911.525 371.481C911.525 372.371 913.15 374.866 915.135 377.36C917.121 379.854 918.745 382.349 918.745 383.061C918.745 383.952 913.15 384.487 906.11 384.487C899.251 384.487 893.475 384.843 893.475 385.199C893.475 385.734 895.1 388.941 897.266 392.326L901.056 398.74H887.158H873.44L877.05 403.907C879.216 406.758 880.84 409.608 880.84 410.143C880.84 410.677 875.245 411.212 868.205 411.212C861.346 411.212 855.57 411.568 855.57 411.924C855.57 412.459 857.195 415.666 859.361 419.051L863.151 425.465H850.336C843.296 425.465 837.52 426 837.52 426.89C837.52 427.603 838.784 430.097 840.408 432.235C842.033 434.552 842.755 436.868 842.213 437.402C841.672 438.115 835.896 438.293 829.398 438.115C822.9 437.937 817.665 438.293 817.665 439.184C817.665 439.897 819.29 442.569 821.275 445.063C823.261 447.558 824.885 450.052 824.885 450.765C824.885 451.656 819.29 452.19 812.25 452.19C805.391 452.19 799.615 451.656 799.615 450.765C799.615 450.052 801.24 447.558 803.225 445.063C805.211 442.569 806.835 439.897 806.835 439.184C806.835 438.293 801.42 437.759 794.742 437.937C787.883 438.115 781.746 438.115 781.024 438.115C780.121 437.937 781.204 435.799 783.19 433.304C785.356 430.632 786.98 427.781 786.98 427.069C786.98 426.178 781.385 425.465 774.345 425.465C767.486 425.465 761.71 424.931 761.71 424.04C761.71 423.327 763.335 420.833 765.32 418.338C767.306 415.844 768.93 413.35 768.93 412.459C768.93 411.746 763.335 411.212 756.295 411.212C749.436 411.212 743.66 410.677 743.66 410.143C743.66 409.608 745.285 406.758 747.451 403.907L751.061 398.74H737.343H723.444L727.235 392.326C729.401 388.941 731.025 385.734 731.025 385.199C731.025 384.843 725.43 384.487 718.39 384.487C711.531 384.487 705.755 383.952 705.755 383.061C705.755 382.349 707.38 379.854 709.365 377.36C711.351 374.866 712.975 372.371 712.975 371.481C712.975 370.768 706.838 370.233 699.257 370.233H685.72L689.33 365.067C691.496 362.216 693.12 359.365 693.12 358.831C693.12 358.296 687.525 357.762 680.485 357.762C673.626 357.762 667.85 357.227 667.85 356.336C667.85 355.624 669.475 353.129 671.46 350.635C673.446 348.141 675.07 345.646 675.07 344.756C675.07 344.043 669.475 343.508 662.435 343.508C655.576 343.508 649.8 342.974 649.8 342.439C649.8 341.905 651.425 339.054 653.591 336.204C657.02 331.393 657.923 331.037 670.197 331.037H683.193L707.56 349.032ZM768.569 359.722C790.049 375.578 808.64 389.297 809.904 390.188C811.348 391.257 824.705 382.349 853.043 361.503C889.865 334.244 894.739 331.037 901.056 331.037C907.915 331.037 907.013 331.928 864.234 363.463C840.047 381.28 818.207 396.958 815.68 398.562C810.987 401.234 810.445 400.7 765.14 367.739C739.87 349.21 718.571 333.531 717.668 332.64C716.585 331.749 718.571 331.037 722.542 331.037C728.498 331.037 734.274 334.6 768.569 359.722ZM790.59 332.462C790.59 333.175 789.327 335.669 787.702 337.807C785.356 341.192 783.37 341.727 774.165 341.727C768.389 341.727 763.515 341.37 763.515 340.836C763.515 340.301 764.779 337.807 766.403 335.491C768.93 331.571 770.735 331.037 779.941 331.037C785.897 331.037 790.59 331.571 790.59 332.462ZM857.917 336.382L861.166 341.727H849.975H838.964L841.852 346.181C843.477 348.497 844.74 350.991 844.74 351.526C844.74 352.06 839.867 352.417 834.091 352.417C824.163 352.417 823.08 352.06 819.47 347.072L815.68 341.727H826.51C832.647 341.727 837.52 341.37 837.52 340.836C837.52 340.301 836.257 337.807 834.632 335.491L831.744 331.037H843.296C854.126 331.037 855.029 331.393 857.917 336.382ZM262.808 346.181C261.184 348.497 259.92 350.991 259.92 351.526C259.92 352.06 264.794 352.417 270.57 352.417C280.497 352.417 281.58 352.773 285.19 357.762L288.981 363.107H270.931C252.881 363.107 250.173 362.038 255.408 357.762C260.281 353.664 258.296 352.417 247.105 352.417H236.275L240.065 347.072C243.675 342.083 244.758 341.727 254.866 341.727H265.696L262.808 346.181ZM804.308 346.181C802.684 348.497 801.42 350.991 801.42 351.526C801.42 352.06 806.294 352.417 812.07 352.417C821.997 352.417 823.08 352.773 826.69 357.762L830.481 363.107H812.25H793.839L796.727 358.653C798.352 356.336 799.615 353.842 799.615 353.308C799.615 352.773 794.742 352.417 788.605 352.417H777.775L781.565 347.072C785.175 342.083 786.258 341.727 796.366 341.727H807.196L804.308 346.181Z" fill="#C8C8C8" fill-opacity="0.52"/>
<path d="M0 350.635C0 357.584 0.1805 357.762 6.498 357.762H12.996L9.025 363.998L5.054 370.233H17.8695C24.909 370.233 30.685 370.768 30.685 371.302C30.685 372.015 29.0605 375.222 26.8945 378.429L23.104 384.487H37.0025H50.901L47.1105 390.544C44.9445 393.751 43.32 396.958 43.32 397.671C43.32 398.206 49.096 398.74 56.1355 398.74H68.951L64.98 404.976L61.009 411.212H74.9075H88.806L85.0155 417.269C82.8495 420.476 81.225 423.683 81.225 424.396C81.225 424.931 87.001 425.465 94.0405 425.465H106.856L103.066 431.523C100.9 434.73 99.275 437.759 99.275 438.115C99.275 438.471 104.871 438.649 111.91 438.471C118.769 438.293 124.545 438.649 124.545 439.362C124.545 440.075 122.921 443.282 120.935 446.311L117.325 452.19H131.043H144.761L140.971 458.248C138.805 461.455 137.18 464.662 137.18 465.374C137.18 465.909 142.956 466.443 149.815 466.443C156.855 466.443 162.45 466.978 162.45 467.691C162.45 468.581 160.826 471.076 158.84 473.57C156.855 476.064 155.23 478.737 155.23 479.806C155.23 480.697 156.855 483.547 158.84 486.042C160.826 488.536 162.45 491.03 162.45 491.743C162.45 492.634 156.855 493.168 149.815 493.168C142.956 493.168 137.18 493.703 137.18 494.237C137.18 494.772 138.805 497.623 140.971 500.473L144.581 505.64H131.946C118.408 505.64 116.784 506.887 121.838 513.479C123.282 515.439 124.545 517.577 124.545 518.468C124.545 519.181 118.95 519.893 111.91 519.893C105.051 519.893 99.275 520.428 99.275 521.141C99.275 522.031 100.9 524.526 102.885 527.02C104.871 529.514 106.495 532.009 106.495 532.721C106.495 533.612 100.9 534.147 93.86 534.147C87.001 534.147 81.225 534.681 81.225 535.216C81.225 535.75 82.8495 538.601 85.0155 541.452L88.6255 546.618H75.088C67.507 546.618 61.37 547.153 61.37 547.866C61.37 548.756 62.9945 551.251 64.98 553.745C66.9655 556.239 68.59 558.734 68.59 559.446C68.59 560.337 62.9945 560.872 55.955 560.872C49.096 560.872 43.32 561.584 43.32 562.475C43.32 563.188 44.9445 566.039 46.93 568.533L50.54 573.165L46.93 574.234C44.9445 574.947 39.349 575.303 34.656 575.125C22.743 574.769 22.743 574.591 26.8945 580.292C29.0605 583.143 30.685 585.993 30.685 586.528C30.685 587.062 25.0895 587.597 18.05 587.597C11.191 587.597 5.415 588.131 5.415 588.844C5.415 589.735 7.0395 592.229 9.025 594.723C13.8985 600.959 13.5375 601.85 6.3175 601.85C0.361 601.85 0 602.206 0 608.086V614.322H11.0105H22.021L18.05 608.086L14.079 601.85H26.8945C33.934 601.85 39.71 601.316 39.71 600.781C39.71 600.068 38.0855 596.861 35.9195 593.654L32.129 587.597H46.0275H59.926L55.955 581.361L51.984 575.125H64.7995C71.839 575.125 77.615 574.591 77.615 574.056C77.615 573.343 75.9905 570.136 73.8245 566.929L70.034 560.872H83.752H97.47L93.86 554.992C91.8745 551.963 90.25 548.756 90.25 547.866C90.25 547.153 96.026 546.618 103.066 546.618H115.881L111.91 540.383L107.939 534.147H120.755C127.794 534.147 133.57 533.612 133.57 532.721C133.57 532.009 131.946 528.802 129.96 525.595L126.35 519.893H140.068H153.786L149.996 513.836C147.83 510.629 146.205 507.422 146.205 506.709C146.205 506.175 151.44 505.996 157.938 506.353C164.436 506.709 170.212 506.175 170.753 505.284C171.295 504.571 170.031 501.542 167.865 498.87L163.894 494.059L177.612 493.168L191.33 492.278L186.998 485.864L182.486 479.45L186.998 472.857L191.511 466.443H177.793H163.894L167.685 460.386C169.851 457.179 171.475 453.972 171.475 453.259C171.475 452.725 165.88 452.19 158.84 452.19C151.981 452.19 146.205 451.656 146.205 450.765C146.205 450.052 147.83 447.558 149.815 445.063C151.801 442.569 153.425 440.075 153.425 439.184C153.425 438.471 147.288 437.937 139.707 437.937H126.17L129.78 433.304C131.946 430.632 133.57 427.781 133.57 427.069C133.57 426.178 127.975 425.465 120.935 425.465C114.076 425.465 108.3 424.931 108.3 424.04C108.3 423.327 109.925 420.833 111.91 418.338C113.896 415.844 115.52 413.35 115.52 412.459C115.52 411.746 109.925 411.212 102.885 411.212C96.026 411.212 90.25 410.677 90.25 410.143C90.25 409.608 91.8745 406.758 94.0405 403.907L97.6505 398.74H84.113C76.532 398.74 70.395 398.206 70.395 397.315C70.395 396.602 72.0195 394.108 74.005 391.613C75.9905 389.119 77.615 386.625 77.615 385.734C77.615 385.021 72.0195 384.487 64.98 384.487C58.121 384.487 52.345 383.952 52.345 383.061C52.345 382.349 53.9695 379.854 55.955 377.36C57.9405 374.866 59.565 372.371 59.565 371.481C59.565 370.768 53.428 370.233 45.847 370.233H32.3095L35.9195 365.067C38.0855 362.216 39.71 359.365 39.71 358.831C39.71 358.296 34.1145 357.762 27.075 357.762C20.216 357.762 14.44 357.227 14.44 356.336C14.44 355.624 16.0645 353.129 18.05 350.635C20.0355 348.141 21.66 345.646 21.66 344.756C21.66 344.043 16.7865 343.508 10.83 343.508H0V350.635Z" fill="#C8C8C8" fill-opacity="0.52"/>
<path d="M519.118 345.646C519.84 346.894 522.006 350.101 523.811 352.773L527.24 357.762H513.522H499.624L503.595 363.998L507.566 370.233H494.75C480.671 370.233 479.769 371.124 485.725 379.32L489.335 384.487H475.617H461.719L465.509 390.544C467.675 393.751 469.3 396.958 469.3 397.671C469.3 398.206 463.704 398.74 456.665 398.74C449.806 398.74 444.03 399.275 444.03 399.809C444.03 400.344 445.654 403.194 447.82 406.045L451.43 411.212H437.712H423.814L427.604 417.269C429.77 420.476 431.395 423.683 431.395 424.396C431.395 424.931 425.799 425.465 418.76 425.465C411.901 425.465 406.125 426 406.125 426.534C406.125 427.069 407.749 429.919 409.915 432.77L413.525 437.937H400.89C386.811 437.937 385.909 438.828 391.865 447.023L395.475 452.19H381.938C374.357 452.19 368.22 452.725 368.22 453.259C368.22 453.794 369.844 456.288 371.83 458.782C373.815 461.277 375.44 464.127 375.44 464.84C375.44 465.731 369.844 466.443 362.805 466.443C355.946 466.443 350.17 466.978 350.17 467.512C350.17 468.047 351.794 470.898 353.96 473.748L357.751 478.915L353.96 484.973C351.794 488.18 350.17 491.387 350.17 492.099C350.17 492.634 355.946 493.168 362.805 493.168C369.844 493.168 375.44 493.703 375.44 494.237C375.44 494.772 373.815 497.623 371.83 500.295C369.844 503.146 368.761 505.64 369.483 506.175C370.386 506.531 375.62 506.709 381.396 506.531C387.172 506.353 392.226 506.887 392.768 507.778C393.309 508.491 392.046 511.698 389.88 514.548L386.089 519.893H399.627C407.208 519.893 413.345 520.428 413.345 521.141C413.345 522.031 411.72 524.526 409.735 527.02C407.749 529.514 406.125 532.009 406.125 532.721C406.125 533.612 411.901 534.147 418.76 534.147C425.799 534.147 431.395 534.681 431.395 535.216C431.395 535.75 429.77 538.601 427.604 541.452L423.994 546.618H437.712H451.611L447.82 552.676C445.654 555.883 444.03 559.09 444.03 559.803C444.03 560.337 449.806 560.872 456.665 560.872C463.704 560.872 469.3 561.406 469.3 562.119C469.3 563.01 467.675 565.504 465.69 567.998C463.704 570.493 462.08 572.987 462.08 573.7C462.08 574.591 467.856 575.125 474.715 575.125C481.754 575.125 487.35 575.838 487.35 576.55C487.35 577.441 486.086 579.579 484.642 581.539C483.198 583.321 481.935 585.459 481.935 586.171C481.935 587.062 487.711 587.597 494.57 587.597C501.609 587.597 507.205 588.131 507.205 588.844C507.205 589.735 505.58 592.229 503.595 594.723C501.609 597.218 499.985 599.712 499.985 600.425C499.985 601.316 505.761 601.85 512.62 601.85C519.659 601.85 525.255 602.385 525.255 603.097C525.255 603.988 523.991 606.126 522.547 607.908C521.103 609.868 519.84 612.006 519.84 612.896C519.84 613.609 529.587 614.322 541.68 614.322H563.521L559.55 608.086L555.579 601.85H568.394C575.434 601.85 581.21 601.316 581.21 600.781C581.21 600.068 579.585 596.861 577.419 593.654L573.629 587.597H587.527H601.426L597.455 581.361L593.484 575.125H606.299C613.339 575.125 619.115 574.591 619.115 574.056C619.115 573.343 617.49 570.136 615.324 566.929L611.534 560.872H625.432H639.331L635.54 554.814C633.374 551.607 631.75 548.4 631.75 547.687C631.75 547.153 637.526 546.618 644.565 546.618H657.381L653.41 540.383L649.619 534.325L663.337 533.79L676.875 533.256L672.362 526.486L667.669 519.893H654.312C646.912 519.893 640.775 520.428 640.775 521.141C640.775 522.031 642.399 524.526 644.385 527.02C646.37 529.514 647.995 532.009 647.995 532.721C647.995 533.612 642.399 534.147 635.36 534.147C628.501 534.147 622.725 534.681 622.725 535.216C622.725 535.75 624.349 538.601 626.515 541.452L630.125 546.618H616.588C609.007 546.618 602.87 547.153 602.87 547.866C602.87 548.756 604.494 551.251 606.48 553.745C608.465 556.239 610.09 558.734 610.09 559.446C610.09 560.337 604.494 560.872 597.455 560.872C590.596 560.872 584.82 561.406 584.82 561.941C584.82 562.475 586.444 565.326 588.43 567.998C590.415 570.849 591.498 573.522 590.776 573.878C589.874 574.234 584.098 574.769 577.6 574.769C571.102 574.769 565.687 574.947 565.326 574.947C564.965 575.125 566.409 577.441 568.394 580.292C570.56 583.143 572.185 585.993 572.185 586.528C572.185 587.062 566.589 587.597 559.55 587.597C552.691 587.597 546.915 588.131 546.915 588.844C546.915 589.735 548.539 592.229 550.525 594.723C552.51 597.218 554.135 599.712 554.135 600.425C554.135 601.316 548.539 601.85 541.5 601.85C527.601 601.85 526.699 600.959 532.655 592.764L536.265 587.597H522.547H508.649L512.62 581.361L516.591 575.125H503.775C489.696 575.125 488.794 574.234 494.75 566.039L498.36 560.872H484.642H470.744L474.534 554.814C476.7 551.607 478.325 548.4 478.325 547.687C478.325 547.153 472.549 546.618 465.509 546.618H452.694L456.304 540.383L460.094 534.325L446.557 533.79L433.2 533.256L437.712 526.486L442.405 519.893H428.687H414.789L418.579 513.836C420.745 510.629 422.37 507.6 422.37 507.065C422.37 506.531 416.955 506.175 410.457 505.996C403.778 505.996 398.002 505.462 397.641 504.927C397.1 504.393 398.544 501.542 400.71 498.692L404.5 493.168H390.782H377.064L381.216 486.22L385.187 479.45L381.216 472.857L377.425 466.443H390.963H404.681L400.89 460.386C398.724 457.179 397.1 453.972 397.1 453.259C397.1 452.725 402.876 452.19 409.735 452.19C416.774 452.19 422.37 451.656 422.37 450.765C422.37 450.052 420.745 447.558 418.76 445.063C416.774 442.569 415.15 440.075 415.15 439.362C415.15 438.828 420.926 438.293 427.785 438.471C434.824 438.649 440.42 438.115 440.42 437.402C440.42 436.511 438.795 433.483 436.629 430.632L433.019 425.465H446.737H460.636L456.845 419.407C454.679 416.2 453.055 412.993 453.055 412.281C453.055 411.746 458.831 411.212 465.69 411.212C472.729 411.212 478.325 410.677 478.325 410.143C478.325 409.608 476.7 406.758 474.534 403.907L470.924 398.74H484.642H498.541L494.75 392.682C492.584 389.475 490.96 386.268 490.96 385.556C490.96 385.021 496.736 384.487 503.595 384.487C510.634 384.487 516.23 383.952 516.23 383.061C516.23 382.349 514.605 379.854 512.62 377.36C510.634 374.866 509.01 372.371 509.01 371.481C509.01 370.768 514.786 370.233 521.645 370.233C528.684 370.233 534.28 369.699 534.28 368.808C534.28 368.095 533.016 365.957 531.572 364.176C530.128 362.216 528.865 360.078 528.865 359.187C528.865 358.474 534.641 357.762 541.68 357.762H554.496L550.705 363.819C548.539 367.026 546.915 370.055 546.915 370.412C546.915 370.768 552.51 370.946 559.55 370.59C573.629 369.877 574.531 370.768 568.394 379.32L564.784 384.487H578.502H592.401L588.61 390.544C586.444 393.751 584.82 396.958 584.82 397.671C584.82 398.206 590.596 398.74 597.455 398.74C604.494 398.74 610.09 399.275 610.09 399.809C610.09 400.344 608.465 403.016 606.299 405.51L602.509 410.321L616.227 411.212L629.945 412.103L626.335 417.448C624.349 420.298 622.725 423.327 622.725 424.04C622.725 424.931 628.501 425.465 635.54 425.465H648.356L644.565 431.523C642.399 434.73 640.775 437.759 640.775 438.293C640.775 438.649 646.551 438.828 653.41 438.828C660.449 438.649 666.045 439.184 666.045 440.253C666.045 441.144 664.42 444.173 662.254 447.023L658.644 452.19H672.362H686.261L682.47 458.248C680.304 461.455 678.68 464.662 678.68 465.374C678.68 465.909 684.456 466.443 691.315 466.443C698.354 466.443 703.95 466.978 703.95 467.512C703.95 468.047 702.325 470.898 700.159 473.748L696.369 478.915L700.159 484.973C702.325 488.18 703.95 491.387 703.95 492.099C703.95 492.634 698.354 493.168 691.315 493.168C684.456 493.168 678.68 493.703 678.68 494.237C678.68 494.772 680.304 497.623 682.47 500.473L686.08 505.64L679.221 505.818C675.431 505.996 669.655 505.818 666.586 505.64C659.547 505.284 659.186 507.422 664.42 514.727C667.85 519.715 668.752 519.893 681.568 519.893H695.286L691.495 513.836C689.329 510.629 687.705 507.6 687.705 507.244C687.705 506.887 693.3 506.531 700.34 506.709C707.199 506.709 712.975 505.996 712.975 505.106C712.975 504.215 711.35 501.186 709.184 498.335L705.574 493.168H719.292H733.191L729.4 487.111C724.707 479.628 724.707 478.024 729.4 471.61L733.01 466.443H719.292H705.394L709.184 460.386C711.35 457.179 712.975 453.972 712.975 453.259C712.975 452.725 707.379 452.19 700.34 452.19C693.481 452.19 687.705 451.656 687.705 450.765C687.705 450.052 689.329 447.558 691.315 445.063C693.3 442.569 694.925 440.075 694.925 439.184C694.925 438.471 689.329 437.937 682.29 437.937C675.431 437.937 669.655 437.402 669.655 436.868C669.655 436.333 671.279 433.483 673.445 430.632L677.055 425.465H663.518C655.937 425.465 649.8 424.931 649.8 424.04C649.8 423.327 651.424 420.833 653.41 418.338C655.395 415.844 657.02 413.35 657.02 412.459C657.02 411.746 651.424 411.212 644.385 411.212C637.526 411.212 631.75 410.677 631.75 410.143C631.75 409.608 633.374 406.758 635.54 403.907L639.15 398.74H625.613C618.032 398.74 611.895 398.206 611.895 397.315C611.895 396.602 613.519 394.108 615.505 391.613C617.49 389.119 619.115 386.625 619.115 385.734C619.115 385.021 613.519 384.487 606.48 384.487C599.621 384.487 593.845 383.952 593.845 383.061C593.845 382.349 595.469 379.854 597.455 377.36C599.44 374.866 601.065 372.371 601.065 371.481C601.065 370.768 595.469 370.233 588.43 370.233C581.571 370.233 575.795 369.521 575.795 368.808C575.795 367.917 577.058 365.779 578.502 363.819C579.946 362.038 581.21 359.9 581.21 359.009C581.21 358.296 575.614 357.762 568.575 357.762C561.716 357.762 555.94 357.227 555.94 356.336C555.94 355.624 557.564 353.129 559.55 350.635C561.535 348.141 563.16 345.646 563.16 344.756C563.16 344.043 552.871 343.508 540.417 343.508C522.908 343.508 518.035 344.043 519.118 345.646Z" fill="#C8C8C8" fill-opacity="0.52"/>
<path d="M1061.34 344.756C1061.34 345.646 1062.96 348.141 1064.95 350.635C1066.94 353.129 1068.56 355.624 1068.56 356.336C1068.56 357.227 1062.96 357.762 1055.93 357.762C1049.07 357.762 1043.29 358.474 1043.29 359.187C1043.29 360.078 1044.55 362.216 1046 364.176C1047.44 365.957 1048.71 368.095 1048.71 368.808C1048.71 369.699 1043.11 370.233 1036.07 370.233C1029.21 370.233 1023.44 370.768 1023.44 371.481C1023.44 372.371 1025.06 374.866 1027.05 377.36C1029.03 379.854 1030.66 382.349 1030.66 383.061C1030.66 383.952 1025.06 384.487 1018.02 384.487C1011.16 384.487 1005.39 385.021 1005.39 385.556C1005.39 386.268 1007.01 389.475 1009.18 392.682L1012.97 398.74H999.068H985.35L988.96 403.907C991.126 406.758 992.75 409.608 992.75 410.143C992.75 410.677 987.155 411.212 980.115 411.212C973.256 411.212 967.48 411.746 967.48 412.281C967.48 412.993 969.105 416.2 971.271 419.407L975.061 425.465H961.163H947.445L951.055 430.632C953.221 433.483 954.845 436.333 954.845 436.868C954.845 437.402 949.25 437.937 942.21 437.937C935.351 437.937 929.575 438.649 929.575 439.54C929.575 440.253 931.2 443.104 933.185 445.598C935.171 448.092 936.795 450.587 936.795 451.121C936.795 451.656 931.2 452.19 924.16 452.19C917.301 452.19 911.525 452.725 911.525 453.259C911.525 453.972 913.15 457.179 915.316 460.386L919.106 466.443H905.388H891.49L895.641 473.214L899.612 480.162L895.461 486.576L891.309 493.168H905.208H918.926L915.135 498.513C912.969 501.364 911.706 504.571 912.247 505.284C912.789 506.175 918.565 506.709 925.063 506.353C931.561 506.175 936.795 506.531 936.795 507.244C936.795 508.134 935.171 510.807 933.185 513.301C931.2 515.796 929.575 518.29 929.575 518.824C929.575 519.359 935.532 519.893 942.932 519.893C955.748 519.893 956.65 519.715 960.08 514.727C965.134 507.778 964.773 505.64 958.997 505.818C956.109 505.996 950.513 505.996 946.181 505.818L938.42 505.64L942.03 500.473C944.196 497.623 945.82 494.772 945.82 494.237C945.82 493.703 940.225 493.168 933.185 493.168C926.326 493.168 920.55 492.634 920.55 492.099C920.55 491.387 922.175 488.18 924.341 484.973L928.131 478.915L924.341 473.748C922.175 470.898 920.55 468.047 920.55 467.512C920.55 466.978 926.326 466.443 933.185 466.443C940.225 466.443 945.82 466.087 945.82 465.731C945.82 465.196 944.196 461.989 942.03 458.604L938.239 452.19H952.138H965.856L962.246 447.023C955.928 438.471 957.011 437.402 971.09 438.293C978.13 438.828 983.725 438.828 983.725 438.649C983.725 438.293 982.101 435.264 979.935 431.879L976.144 425.465H988.96C995.999 425.465 1001.78 424.931 1001.78 424.396C1001.78 423.683 1000.15 420.476 997.985 417.269L994.194 411.212H1008.09H1021.81L1018.2 406.045C1016.03 403.194 1014.41 400.344 1014.41 399.809C1014.41 399.275 1020.19 398.74 1027.05 398.74C1034.08 398.74 1039.68 398.206 1039.68 397.671C1039.68 396.958 1038.06 393.751 1035.89 390.544L1032.1 384.487H1046H1059.72L1056.11 379.32C1050.15 371.124 1051.05 370.233 1065.13 370.233H1077.95L1073.98 363.998L1070 357.762H1076.5C1082.82 357.762 1083 357.584 1083 350.635V343.508H1072.17C1066.21 343.508 1061.34 344.043 1061.34 344.756Z" fill="#C8C8C8" fill-opacity="0.52"/>
<path d="M0 396.424V408.539L47.652 443.282C74.005 462.346 95.4845 478.559 95.4845 479.093C95.665 479.628 74.1855 496.019 47.8325 515.261L0 550.538V561.941C0 570.849 0.5415 573.165 2.3465 572.274C5.054 570.493 124.906 482.478 127.072 480.697C127.794 479.806 105.954 462.524 78.337 442.213C50.54 421.902 21.66 400.522 14.079 394.82L0 384.309V396.424Z" fill="#C8C8C8" fill-opacity="0.52"/>
<path d="M475.978 431.879L411.359 479.45L475.076 526.307C510.093 552.142 539.695 573.165 540.597 573.343C542.944 573.343 668.572 481.409 669.113 479.45C669.294 478.381 545.651 386.625 541.68 384.843C540.958 384.665 511.537 405.867 475.978 431.879ZM592.04 445.063C616.768 463.236 636.984 478.559 637.165 479.271C637.165 480.519 542.583 550.182 540.778 550.182C539.334 550.182 444.932 480.519 444.932 479.271C444.932 478.915 466.412 462.524 492.765 443.282C533.558 413.172 541.139 408.361 543.666 409.965C545.471 411.212 567.131 426.89 592.04 445.063Z" fill="#C8C8C8" fill-opacity="0.52"/>
<path d="M499.263 448.805C465.148 473.926 458.47 479.628 460.455 481.409C472.549 492.099 540.236 539.67 542.222 538.957C546.193 537.354 622.725 480.697 622.725 479.271C622.544 478.202 544.568 419.764 541.68 418.873C541.139 418.695 522.006 432.057 499.263 448.805ZM555.94 452.19C552.33 457.179 551.247 457.535 541.319 457.535C535.543 457.535 530.67 457.891 530.67 458.426C530.67 458.96 531.933 461.455 533.558 463.771L536.446 468.225H525.616C515.508 468.225 514.425 467.869 510.815 462.88L507.024 457.535H517.854C523.991 457.535 528.865 457.179 528.865 456.644C528.865 456.11 527.601 453.615 525.977 451.299L523.089 446.845H541.5H559.73L555.94 452.19ZM573.99 459.138C573.99 460.029 572.726 461.633 571.282 462.88C566.409 466.978 568.394 468.225 579.585 468.225H590.415L586.625 473.57C583.015 478.737 582.834 479.271 585.542 483.369C587.166 485.685 588.43 488.18 588.43 488.714C588.43 489.249 583.917 489.605 578.502 489.605C568.033 489.605 566.95 490.496 571.282 496.019C575.434 501.364 574.712 502.077 564.062 502.077C558.647 502.077 554.135 502.433 554.135 502.967C554.135 503.502 555.398 505.996 557.023 508.312L559.911 512.767H541.68C531.753 512.767 523.45 512.41 523.45 511.876C523.45 511.341 524.713 508.847 526.338 506.531L529.226 502.077H518.035H506.844L509.732 497.622C514.244 490.674 513.342 489.605 502.512 489.605H492.584L495.653 484.438C498.541 479.449 498.541 478.915 495.833 474.639C494.209 472.145 492.765 469.65 492.765 469.116C492.765 468.581 497.458 468.225 503.234 468.225C512.8 468.225 514.064 468.759 517.854 473.748C521.645 478.915 521.825 479.271 518.937 483.547C517.313 486.042 516.41 488.536 516.952 489.07C517.493 489.783 522.006 489.961 527.06 489.783C536.626 489.605 537.709 490.496 533.377 496.019C529.226 501.542 529.948 502.077 541.68 502.077H552.691L549.803 497.622C544.929 490.318 546.012 489.249 556.842 489.961C562.257 490.139 566.77 490.139 566.77 489.961C566.77 489.605 565.326 486.932 563.701 484.26C560.994 479.449 560.994 478.915 563.701 474.639C565.326 472.145 566.77 469.65 566.77 469.116C566.77 468.581 561.896 468.225 555.759 468.225H544.929L548.72 462.88C552.33 457.891 553.413 457.535 563.34 457.535C569.116 457.535 573.99 458.248 573.99 459.138Z" fill="#C8C8C8" fill-opacity="0.52"/>
<path d="M1024.34 427.425C992.569 450.943 963.87 471.967 960.801 474.105C957.552 476.243 954.845 478.559 954.845 479.271C954.845 479.806 962.426 485.864 971.631 492.456C980.656 499.226 1008.63 519.537 1033.36 537.71C1058.27 556.061 1079.57 571.562 1080.83 572.274C1082.46 573.165 1083 570.849 1083 562.119V550.716L1035.17 515.617C1008.81 496.197 987.335 479.806 987.335 479.271C987.515 478.559 1008.99 462.346 1035.17 443.282L1082.82 408.539L1083 396.424C1083 389.832 1082.82 384.487 1082.64 384.665C1082.28 384.665 1056.11 403.907 1024.34 427.425Z" fill="#C8C8C8" fill-opacity="0.52"/>
<path d="M1042.39 448.092C1020.55 464.127 1002.5 478.202 1002.14 478.915C1001.59 480.162 1070.36 532.009 1080.83 538.423C1082.46 539.314 1083 536.463 1083 526.307V512.767H1073.79H1064.59L1067.48 508.313C1069.1 505.996 1070.36 503.502 1070.36 502.968C1070.36 502.433 1065.85 502.077 1060.44 502.077C1049.97 502.077 1048.89 501.186 1053.22 495.663C1057.37 490.318 1056.65 489.605 1046 489.605C1035.53 489.605 1034.63 488.892 1038.78 483.547C1041.12 480.519 1040.94 479.45 1037.69 474.105L1033.9 468.225H1045.09H1056.29L1053.4 463.771C1051.77 461.455 1050.51 458.96 1050.51 458.426C1050.51 457.891 1055.38 457.535 1061.16 457.535C1070.36 457.535 1072.35 458.07 1074.7 461.455C1079.03 467.512 1078.31 468.225 1067.66 468.225C1062.24 468.225 1057.73 468.581 1057.73 469.116C1057.73 469.65 1059.17 472.145 1060.8 474.639C1063.51 478.915 1063.51 479.45 1060.62 484.438C1057.19 490.318 1057.01 490.318 1070.91 489.605C1078.31 489.249 1079.03 491.03 1074.7 497.623C1071.81 502.077 1071.81 502.077 1077.4 502.077H1083V479.806V457.535H1077.77C1073.97 457.535 1071.27 456.11 1068.56 452.19L1064.77 446.845H1073.79H1083V432.592C1083 424.752 1082.82 418.338 1082.64 418.517C1082.28 418.517 1064.23 431.879 1042.39 448.092Z" fill="#C8C8C8" fill-opacity="0.52"/>
<path d="M0 433.304V446.845H8.1225C16.967 446.845 17.689 447.736 13.357 453.615C11.552 456.11 8.8445 457.535 5.2345 457.535H0V479.806V502.077H4.5125C9.025 502.077 10.83 497.979 7.22 495.841C6.3175 495.306 5.415 493.525 5.415 492.099C5.415 490.318 7.942 489.605 15.523 489.605H25.4505L22.382 484.438C19.494 479.45 19.494 478.915 22.2015 474.639C23.826 472.145 25.27 469.65 25.27 469.116C25.27 468.581 20.3965 468.225 14.2595 468.225H3.4295L7.22 462.88C10.83 457.891 11.913 457.535 22.021 457.535H32.851L29.963 461.989C28.3385 464.305 27.075 466.8 27.075 467.334C27.075 467.869 31.5875 468.225 37.0025 468.225C47.652 468.225 48.374 468.938 44.042 474.995C41.515 478.737 41.515 479.45 44.042 483.369C45.6665 485.685 46.93 488.18 46.93 488.714C46.93 489.249 42.4175 489.605 37.0025 489.605C26.5335 489.605 25.4505 490.496 29.7825 496.019C33.934 501.542 33.212 502.077 21.4795 502.077H10.6495L14.44 507.422L18.2305 512.767H9.2055H0V526.307C0 536.463 0.5415 539.314 2.3465 538.423C9.025 534.325 81.225 480.162 81.225 479.271C81.0445 478.024 4.693 421.545 1.6245 420.476C0.722 420.12 0 425.643 0 433.304Z" fill="#C8C8C8" fill-opacity="0.52"/>
<path d="M249.09 494.237C249.09 494.772 250.715 497.623 252.881 500.473C257.032 506.175 257.213 505.996 242.773 505.996C229.416 505.818 228.333 506.531 232.665 512.589C234.831 515.439 236.455 518.29 236.455 518.824C236.455 519.359 230.86 519.893 223.82 519.893C216.961 519.893 211.185 520.428 211.185 521.141C211.185 522.031 212.81 524.526 214.795 527.02C216.781 529.514 218.405 532.009 218.405 532.721C218.405 533.612 212.81 534.147 205.77 534.147C198.911 534.147 193.135 534.859 193.135 535.572C193.135 536.463 194.399 538.601 195.843 540.561C197.287 542.342 198.55 544.48 198.55 545.193C198.55 546.084 192.955 546.618 185.915 546.618C179.056 546.618 173.28 547.153 173.28 547.866C173.28 548.756 174.905 551.251 176.89 553.745C178.876 556.239 180.5 558.734 180.5 559.446C180.5 560.337 174.905 560.872 167.865 560.872C161.006 560.872 155.23 561.406 155.23 562.119C155.23 563.01 156.494 565.148 157.938 566.929C162.992 573.343 161.367 574.769 149.454 574.947C143.137 574.947 137.361 574.947 136.639 574.947C135.736 575.125 136.819 577.441 138.805 580.292C140.971 583.143 142.595 585.993 142.595 586.528C142.595 587.062 137 587.597 129.96 587.597C123.101 587.597 117.325 588.131 117.325 588.844C117.325 589.735 118.95 592.229 120.935 594.723C122.921 597.218 124.545 599.712 124.545 600.425C124.545 601.316 118.408 601.85 110.827 601.85H97.2895L100.9 607.017C103.066 609.868 104.69 612.718 104.69 613.253C104.69 613.787 99.0945 614.322 92.055 614.322C85.196 614.322 79.42 614.856 79.42 615.569C79.42 616.46 81.0445 618.954 83.03 621.448C85.0155 623.943 86.64 626.437 86.64 627.15C86.64 628.041 67.146 628.575 43.32 628.575H0V633.029V637.483H541.5H1083V633.029V628.575H1039.68C1015.85 628.575 996.36 628.041 996.36 627.15C996.36 626.437 997.985 623.943 999.97 621.448C1001.96 618.954 1003.58 616.46 1003.58 615.569C1003.58 614.856 997.443 614.322 989.862 614.322H976.325L979.935 609.155C982.101 606.304 983.725 603.454 983.725 602.919C983.725 602.385 978.13 601.85 971.09 601.85C964.231 601.85 958.455 601.316 958.455 600.425C958.455 599.712 960.08 597.218 962.065 594.723C964.051 592.229 965.675 589.735 965.675 588.844C965.675 588.131 960.08 587.597 953.04 587.597C946.181 587.597 940.405 586.884 940.405 585.993C940.405 585.281 942.03 582.43 944.196 579.757C946.181 577.263 947.264 575.125 946.362 574.947C945.64 574.947 939.503 574.947 932.824 575.125C925.965 575.303 920.55 574.769 920.55 573.878C920.55 573.165 922.175 570.493 924.16 567.998C926.146 565.504 927.77 563.01 927.77 562.119C927.77 561.406 922.175 560.872 915.135 560.872C908.276 560.872 902.5 560.337 902.5 559.446C902.5 558.734 904.125 556.239 906.11 553.745C908.096 551.251 909.72 548.756 909.72 547.866C909.72 547.153 903.583 546.618 896.002 546.618H882.465L886.075 541.452C888.241 538.601 889.865 535.75 889.865 535.216C889.865 534.681 884.27 534.147 877.23 534.147C870.371 534.147 864.595 533.612 864.595 532.721C864.595 532.009 866.22 529.514 868.205 527.02C870.191 524.526 871.815 522.031 871.815 521.141C871.815 520.428 866.22 519.893 859.18 519.893C852.321 519.893 846.545 519.537 846.545 519.181C846.545 518.646 848.17 515.439 850.336 512.054L854.126 505.64H840.228H826.51L830.12 500.473C832.286 497.623 833.91 494.772 833.91 494.237C833.91 493.703 824.163 493.168 812.25 493.168C800.337 493.168 790.59 493.703 790.59 494.237C790.59 494.772 792.215 497.623 794.381 500.473L797.991 505.64H785.356C771.638 505.64 770.013 507.065 775.248 513.836C776.692 515.617 777.955 517.755 777.955 518.468C777.955 519.359 772.36 519.893 765.32 519.893C758.461 519.893 752.685 520.428 752.685 521.141C752.685 522.031 754.31 524.526 756.295 527.02C758.281 529.514 759.905 532.009 759.905 532.721C759.905 533.612 754.31 534.147 747.27 534.147C740.411 534.147 734.635 534.681 734.635 535.394C734.635 536.285 735.899 538.423 737.343 540.204C738.787 542.164 740.05 544.302 740.05 545.193C740.05 545.906 734.455 546.618 727.415 546.618C720.556 546.618 714.78 547.153 714.78 547.866C714.78 548.756 716.405 551.251 718.39 553.745C720.376 556.239 722 558.734 722 559.446C722 560.337 716.405 560.872 709.365 560.872C702.506 560.872 696.73 561.406 696.73 561.941C696.73 562.475 698.355 565.326 700.521 568.177C702.506 571.027 703.77 573.522 703.228 573.522C700.16 574.234 693.842 574.769 685.72 574.947L676.695 575.125L680.305 580.292C682.471 583.143 684.095 585.993 684.095 586.528C684.095 587.062 678.5 587.597 671.46 587.597C664.601 587.597 658.825 588.131 658.825 588.844C658.825 589.735 660.45 592.229 662.435 594.723C664.421 597.218 666.045 599.712 666.045 600.425C666.045 601.316 660.45 601.85 653.41 601.85C646.551 601.85 640.775 602.385 640.775 603.097C640.775 603.988 642.039 606.126 643.483 607.908C644.927 609.868 646.19 612.006 646.19 612.896C646.19 613.609 640.595 614.322 633.555 614.322C626.696 614.322 620.92 614.856 620.92 615.569C620.92 616.46 622.545 618.954 624.53 621.448C626.516 623.943 628.14 626.437 628.14 627.15C628.14 628.041 589.152 628.575 541.5 628.575C493.848 628.575 454.86 627.862 454.86 626.972C454.86 626.259 456.485 623.408 458.47 620.914C460.456 618.42 462.08 615.925 462.08 615.391C462.08 614.856 455.943 614.322 448.362 614.322H434.825L438.435 609.155C440.601 606.304 442.225 603.454 442.225 602.919C442.225 602.385 436.63 601.85 429.59 601.85C422.731 601.85 416.955 601.316 416.955 600.425C416.955 599.712 418.58 597.218 420.565 594.723C422.551 592.229 424.175 589.735 424.175 588.844C424.175 588.131 418.038 587.597 410.638 587.597H397.281L392.588 594.189L388.075 600.959L401.613 601.494L415.331 602.028L411.54 608.086L407.569 614.322H420.385C427.424 614.322 433.2 614.856 433.2 615.391C433.2 616.103 431.576 619.31 429.41 622.517C425.8 628.397 425.439 628.575 413.165 628.575H400.71L336.452 581.361C301.255 555.349 271.653 534.147 270.931 534.147C270.209 534.147 240.787 555.349 205.59 581.361L141.693 628.397L128.697 628.575C116.423 628.575 115.52 628.219 112.091 623.408C106.134 615.213 107.037 614.322 121.116 614.322H133.931L129.96 608.086L125.989 601.85H138.805C145.844 601.85 151.62 601.316 151.62 600.781C151.62 600.068 149.996 596.861 147.83 593.654L144.039 587.597H157.757H171.295L167.685 581.361L163.894 575.125H176.71C183.749 575.125 189.525 574.591 189.525 574.056C189.525 573.343 187.901 570.136 185.735 566.929L181.944 560.872H195.843H209.561L205.951 555.705C199.994 547.509 200.897 546.618 214.976 546.618H227.791L223.82 540.383L219.849 534.147H232.665C239.704 534.147 245.48 533.612 245.48 533.078C245.48 532.365 243.856 529.158 241.69 525.951L237.899 519.893H251.798H265.696L261.906 513.836C259.74 510.629 258.115 507.6 258.115 507.065C258.115 506.709 263.891 506.353 270.75 506.353C277.79 506.531 283.385 506.709 283.385 507.244C283.385 507.6 281.761 510.629 279.595 513.836L275.804 519.893H289.522C302.338 519.893 303.24 519.715 306.67 514.727C312.626 506.531 311.724 505.64 297.645 505.64H285.01L288.62 500.473C290.786 497.623 292.41 494.772 292.41 494.237C292.41 493.703 282.663 493.168 270.75 493.168C258.837 493.168 249.09 493.703 249.09 494.237ZM824.885 507.065C824.885 507.6 823.261 510.629 821.095 513.836L817.304 519.893H831.203H844.921L841.311 525.06C835.354 533.256 836.257 534.147 850.336 534.147H863.151L859.18 540.383L855.209 546.618H868.025C875.064 546.618 880.84 547.153 880.84 547.687C880.84 548.4 879.216 551.607 877.05 554.814L873.259 560.872H887.158H901.056L897.266 566.929C895.1 570.136 893.475 573.343 893.475 574.056C893.475 574.591 899.251 575.125 906.291 575.125H919.106L915.135 581.361L911.164 587.597H924.882H938.6L934.99 593.298C933.005 596.505 931.38 599.712 931.38 600.425C931.38 601.316 937.156 601.85 944.196 601.85H957.011L953.04 608.086L949.069 614.322H961.885C968.924 614.322 974.7 614.856 974.7 615.391C974.7 616.103 973.076 619.31 970.91 622.517C967.3 628.397 966.939 628.575 954.845 628.575H942.391L878.133 581.361C842.755 555.349 813.333 534.147 812.611 534.147C811.709 534.147 782.468 555.349 747.27 581.361L683.193 628.397L670.197 628.575C657.562 628.575 657.201 628.575 653.591 622.517C651.425 619.31 649.8 616.103 649.8 615.391C649.8 614.856 655.576 614.322 662.616 614.322H675.431L671.46 608.086L667.489 601.85H680.305C687.344 601.85 693.12 601.316 693.12 600.781C693.12 600.068 691.496 596.861 689.33 593.654L685.539 587.597H699.438H713.336L709.365 581.361L705.394 575.125H718.21C725.249 575.125 731.025 574.591 731.025 574.056C731.025 573.343 729.401 570.136 727.235 566.929L723.444 560.872H737.343H751.241L747.451 554.814C745.285 551.607 743.66 548.4 743.66 547.687C743.66 547.153 749.436 546.618 756.476 546.618H769.291L765.32 540.383L761.349 534.147H774.165C788.244 534.147 789.327 533.078 783.19 525.595L779.399 520.784L793.117 519.893L806.835 519.003L803.225 513.658C801.24 510.629 799.615 507.956 799.615 507.422C799.615 506.887 805.391 506.531 812.25 506.353C819.29 506.353 824.885 506.531 824.885 507.065ZM317.68 591.16C342.95 609.868 364.43 625.903 365.332 626.793C366.596 628.041 364.971 628.575 360.82 628.575C355.585 628.575 348.185 623.943 313.168 598.287C290.425 581.539 270.931 568.177 269.667 568.711C268.584 569.067 249.632 582.786 227.43 598.999C194.038 623.765 186.457 628.575 181.222 628.575C177.793 628.575 175.085 628.219 175.085 627.862C175.085 627.506 193.496 613.787 216.239 597.218C238.802 580.826 260.101 564.97 263.53 562.297C266.96 559.625 270.209 557.308 270.75 557.308C271.292 557.308 292.41 572.631 317.68 591.16ZM859.541 591.338C912.969 630.713 910.442 628.575 902.32 628.575C896.905 628.575 889.865 623.943 854.848 598.287C832.105 581.539 812.431 568.177 811.348 568.711C810.084 569.067 790.951 582.786 769.111 599.178C732.65 626.081 728.498 628.753 722.542 628.219C716.224 627.684 716.946 627.15 752.866 600.781C773.082 585.815 794.561 570.136 800.518 565.682C806.474 561.228 812.25 557.843 813.514 558.199C814.777 558.556 835.354 573.522 859.541 591.338ZM288.8 595.614C288.8 596.149 287.537 598.643 285.912 600.959C283.205 605.057 283.205 605.235 287.356 606.304C289.703 606.839 293.854 607.017 296.562 606.482C302.879 605.413 304.143 607.73 300.352 613.431L297.464 617.885H308.475H319.666L316.417 623.23C313.529 628.219 312.626 628.575 301.796 628.575H290.244L293.132 624.121C294.757 621.805 296.02 619.31 296.02 618.776C296.02 618.241 291.508 617.885 286.093 617.885C275.443 617.885 274.721 617.172 278.873 611.293C282.302 606.482 281.039 605.77 269.848 606.304C258.657 606.839 259.198 606.482 262.447 611.115C266.779 617.172 266.057 617.885 255.408 617.885C249.993 617.885 245.48 618.241 245.48 618.776C245.48 619.31 246.744 621.805 248.368 624.121L251.256 628.575H240.426C230.318 628.575 229.235 628.219 225.625 623.23L221.835 617.885H232.665C238.802 617.885 243.675 617.529 243.675 616.994C243.675 616.46 242.412 613.965 240.787 611.649C237.538 606.661 237.719 606.661 249.271 607.195C257.032 607.551 259.559 604.701 255.588 600.247C253.964 598.465 252.7 596.505 252.7 595.971C252.7 595.258 260.823 594.723 270.75 594.723C280.678 594.723 288.8 595.08 288.8 595.614ZM830.3 595.614C830.3 596.149 829.037 598.465 827.412 600.781C823.983 605.948 825.427 606.839 835.354 606.304C844.56 605.77 846.004 607.373 841.852 613.431L838.964 617.885H849.975H861.166L857.917 623.23C855.029 628.219 854.126 628.575 843.296 628.575H831.744L834.632 624.121C836.257 621.805 837.52 619.31 837.52 618.776C837.52 618.241 833.008 617.885 827.593 617.885C816.943 617.885 816.221 617.172 820.553 611.115C821.997 608.977 823.08 607.017 822.719 607.017C822.358 606.839 817.846 606.661 812.792 606.482C806.113 606.126 803.225 606.839 803.225 608.264C803.225 609.511 804.128 611.115 805.03 611.649C806.113 612.184 806.835 613.965 806.835 615.391C806.835 617.172 804.308 617.885 796.727 617.885H786.619L789.507 622.339C791.132 624.655 792.395 627.15 792.395 627.684C792.395 628.219 787.522 628.575 781.746 628.575C771.818 628.575 770.735 628.219 767.125 623.23L763.335 617.885H774.165C785.897 617.885 786.619 617.351 782.468 611.827C781.024 609.868 779.76 607.908 779.76 607.373C779.76 606.839 784.273 606.304 789.688 606.482C800.337 606.661 801.24 605.77 796.727 599.178L793.839 594.723H812.07C821.997 594.723 830.3 595.08 830.3 595.614Z" fill="#C8C8C8" fill-opacity="0.52"/>
<path d="M299.81 525.06C293.854 533.256 294.756 534.147 308.835 534.147H321.651L317.68 540.383L313.709 546.618H326.524C333.564 546.618 339.34 547.153 339.34 547.687C339.34 548.4 337.715 551.607 335.549 554.814L331.759 560.872H345.477H359.195L355.585 566.573C353.599 569.78 351.975 572.987 351.975 573.7C351.975 574.591 357.751 575.125 364.79 575.125H377.606L373.635 581.361L369.664 587.597H383.382C396.378 587.597 396.919 587.419 400.71 582.074C402.876 579.223 404.32 576.372 403.959 575.838C403.417 575.481 397.641 574.947 391.143 574.947C384.465 574.769 379.05 574.234 379.05 573.522C379.05 572.987 380.674 570.493 382.66 567.998C384.645 565.504 386.27 563.01 386.27 562.119C386.27 561.406 380.674 560.872 373.635 560.872C366.776 560.872 361 560.337 361 559.803C361 559.09 362.624 555.883 364.79 552.676L368.581 546.618H354.682H340.964L344.574 541.452C346.74 538.601 348.365 535.75 348.365 535.216C348.365 534.681 342.769 534.147 335.73 534.147C328.871 534.147 323.095 533.79 323.095 533.434C323.095 532.9 324.719 529.693 326.885 526.307L330.676 519.893H317.138C304.142 519.893 303.24 520.072 299.81 525.06Z" fill="#C8C8C8" fill-opacity="0.52"/>
<path d="M952.138 526.486L947.625 533.256L961.343 534.147L975.061 535.038L971.271 539.848C969.105 542.342 967.48 545.015 967.48 545.549C967.48 546.084 973.256 546.618 980.115 546.618C987.155 546.618 992.75 547.153 992.75 547.687C992.75 548.4 991.126 551.607 988.96 554.814L985.169 560.872H999.068H1012.79L1009.18 566.039C1003.22 574.234 1004.12 575.125 1018.2 575.125H1031.02L1027.05 581.361L1023.07 587.597H1036.61C1049.97 587.597 1050.15 587.419 1054.84 581.361C1057.55 577.976 1058.99 575.125 1058.27 574.947C1057.55 574.947 1052.13 574.947 1046.54 575.125C1033.18 575.481 1031.56 574.412 1036.07 567.998C1038.06 565.326 1039.68 562.475 1039.68 561.941C1039.68 561.406 1034.08 560.872 1027.05 560.872C1020.19 560.872 1014.41 560.159 1014.41 559.268C1014.41 558.556 1016.03 555.705 1018.02 553.211C1020.01 550.716 1021.63 548.222 1021.63 547.687C1021.63 547.153 1015.49 546.618 1007.91 546.618H994.375L997.985 541.452C1000.15 538.601 1001.78 535.75 1001.78 535.216C1001.78 534.681 996.18 534.147 989.14 534.147C982.281 534.147 976.505 533.79 976.505 533.434C976.505 532.9 978.13 529.693 980.296 526.307L984.086 519.893H970.368H956.831L952.138 526.486Z" fill="#C8C8C8" fill-opacity="0.52"/>
<path d="M1046.9 593.298C1044.91 596.505 1043.29 599.712 1043.29 600.425C1043.29 601.316 1049.07 601.85 1056.11 601.85H1068.92L1064.95 608.086L1060.98 614.322H1071.99H1083V608.086C1083 602.206 1082.64 601.85 1076.68 601.85C1069.46 601.85 1069.1 600.959 1073.98 594.723C1075.96 592.229 1077.59 589.735 1077.59 588.844C1077.59 588.131 1071.45 587.597 1064.05 587.597C1050.69 587.597 1050.33 587.597 1046.9 593.298Z" fill="#C8C8C8" fill-opacity="0.52"/>
<path d="M33.573 682.025C26.1725 684.341 17.1475 693.606 9.747 706.434C6.3175 712.67 2.7075 717.658 1.805 717.658C0.722 717.658 0 719.262 0 721.222C0 723.182 1.083 724.785 2.527 724.785C5.5955 724.785 10.83 718.371 18.5915 705.187C25.992 692.715 34.656 686.657 43.32 688.083C52.1645 689.508 57.76 694.14 65.1605 706.79C74.005 721.4 77.254 724.785 83.03 724.785C88.806 724.785 92.5965 720.865 101.08 706.434C108.3 694.14 113.896 689.508 122.74 688.083C131.946 686.657 139.888 692.893 149.815 708.75C163.533 731.021 169.67 730.843 183.208 708.394C193.316 691.646 199.814 686.836 210.283 688.083C218.586 689.152 226.708 696.813 235.553 712.492C245.48 729.952 253.964 729.596 264.613 711.601C281.58 682.916 298.186 679.887 312.446 702.692C323.817 720.865 325.803 723.538 329.593 724.963C335.73 727.101 341.506 722.825 348.726 710.71C361.361 689.152 370.747 683.629 383.743 690.399C388.436 692.715 392.768 697.704 398.905 707.859C412.443 729.774 419.843 730.843 430.673 712.313C444.03 689.686 453.597 683.807 466.954 690.221C472.008 692.715 475.979 697.169 482.477 707.859C492.404 723.716 493.307 724.785 500.527 724.785C505.581 724.785 508.108 722.113 519.84 702.871C533.378 681.312 551.067 682.738 565.146 706.612C573.81 721.4 577.239 724.785 583.015 724.785C588.791 724.785 592.762 720.687 601.787 705.543C609.368 693.25 613.881 689.508 622.906 688.083C631.931 686.657 640.053 692.893 649.8 708.75C663.518 731.021 669.655 730.843 683.193 708.572C692.218 693.25 696.55 689.508 705.936 688.083C714.961 686.657 723.083 692.893 732.83 708.75C741.494 722.825 747.09 727.101 753.407 724.963C755.573 724.072 761.349 716.768 766.403 708.572C776.872 691.824 783.912 686.657 794.02 688.083C801.962 689.33 808.64 695.744 817.846 710.888C829.217 729.774 836.076 730.486 846.365 713.561C866.4 680.6 881.201 678.996 898.89 707.859C912.969 730.486 919.648 731.021 932.463 709.997C943.113 692.359 947.806 688.261 957.192 688.261C967.661 688.261 973.256 692.359 981.018 705.543C989.862 720.509 994.194 724.785 1000.15 724.785C1005.75 724.785 1009.54 720.865 1018.56 705.187C1025.78 692.893 1034.63 686.657 1043.11 688.083C1052.13 689.508 1056.65 693.25 1064.23 705.543C1072.17 718.727 1077.22 724.785 1080.65 724.785C1083.36 724.785 1083.9 720.153 1081.38 718.549C1080.29 718.015 1077.04 713.026 1073.79 707.503C1060.98 685.588 1049.43 677.927 1034.45 682.025C1025.42 684.341 1018.02 691.646 1009.9 706.078C1000.33 722.825 998.707 722.647 987.696 703.405C980.657 690.755 973.978 684.698 964.412 681.847C957.914 680.065 955.567 680.243 948.528 682.916C939.683 686.123 933.727 692.893 924.702 709.106C917.121 722.825 916.94 722.647 901.959 699.842C884.811 673.651 862.068 674.364 846.184 701.623C842.394 707.859 837.881 714.63 835.896 716.411C832.105 720.331 832.466 720.865 817.124 697.169C810.084 686.301 797.449 679.174 788.244 680.956C778.497 682.738 770.916 688.617 763.696 700.376C753.227 716.768 751.061 719.44 748.534 718.371C747.27 718.015 742.577 711.423 738.245 704.118C729.04 688.795 724.708 684.698 714.6 682.025C700.34 678.105 688.427 685.232 677.778 704.296C672.002 714.273 668.031 719.44 665.865 719.44C664.962 719.44 660.991 713.739 656.84 706.79C647.273 690.755 640.595 684.341 631.57 682.025C616.588 677.927 606.48 684.519 592.943 706.612C588.972 713.204 584.459 718.549 583.015 718.549C581.571 718.549 577.059 713.204 573.088 706.612C563.521 690.933 556.662 684.163 548.359 681.847C533.739 678.105 521.645 685.588 510.093 706.078C506.483 712.135 502.512 717.658 501.068 718.193C498 719.44 494.39 715.699 489.336 705.543C479.589 686.479 465.871 678.105 450.889 682.025C441.684 684.519 435.908 690.221 427.063 705.187C423.273 711.601 419.302 717.302 418.219 718.015C415.15 719.796 412.082 716.589 405.042 704.118C394.573 685.767 381.938 678.284 367.859 682.025C358.293 684.698 352.878 689.686 344.936 703.227C340.965 709.819 336.452 716.233 335.008 717.48C332.12 719.796 331.398 718.906 317.139 697.169C310.099 686.301 297.464 679.174 288.259 680.956C278.512 682.738 270.931 688.617 263.711 700.376C253.242 716.768 251.076 719.44 248.549 718.371C247.285 718.015 242.592 711.423 238.26 704.118C229.055 688.795 224.723 684.698 214.615 682.025C200.355 678.105 188.442 685.232 177.793 704.296C167.504 722.469 165.519 722.647 156.133 706.078C144.4 685.232 132.848 677.927 118.047 681.847C109.383 684.163 102.524 690.755 92.9575 706.612C88.9865 713.204 84.474 718.549 83.03 718.549C81.586 718.549 77.0735 713.204 73.1025 706.612C63.7165 691.29 56.8575 684.163 48.9155 682.025C41.515 680.065 40.6125 680.065 33.573 682.025Z" fill="#C8C8C8" fill-opacity="0.52"/>
<path d="M35.739 700.02C33.934 700.911 29.241 707.325 25.27 713.917C17.5085 727.101 9.025 735.475 3.4295 735.475C1.083 735.475 0 736.722 0 739.217C0 742.602 0.722 742.958 5.5955 741.889C14.801 740.107 20.938 734.406 29.963 719.44C34.656 711.601 39.5295 705.187 40.793 705.187C43.32 705.187 44.2225 706.434 56.4965 724.607C65.702 738.682 73.1025 743.136 85.196 742.067C96.5675 741.176 101.802 737.435 110.105 724.251C124.906 701.089 125.448 700.911 133.751 715.342C142.776 731.021 146.566 735.475 153.786 739.217C161.728 743.136 169.309 743.493 177.432 740.107C184.652 737.079 188.623 732.981 197.648 718.015C201.619 711.423 206.312 705.899 207.936 705.543C209.922 705.187 213.171 708.75 218.044 717.124C231.762 740.107 244.217 746.878 260.462 740.107C267.682 737.079 271.653 732.981 280.678 718.015C290.064 702.514 292.771 702.514 301.616 717.658C313.709 738.326 325.983 745.452 340.965 741.176C349.268 738.682 356.127 731.555 364.61 717.124C373.094 702.692 375.801 702.692 385.187 718.015C394.573 732.981 398.364 737.079 405.584 740.107C421.829 746.878 434.283 740.107 448.001 717.124C455.943 703.405 459.012 702.514 464.788 711.957C480.311 737.079 484.462 740.998 497.639 742.067C510.996 743.136 518.577 737.791 529.768 719.796C534.641 711.779 539.695 705.187 540.959 705.187C543.305 705.187 544.208 706.434 556.482 724.607C565.687 738.682 573.088 743.136 585.181 742.067C596.192 741.176 603.773 735.297 611.715 721.934C619.296 709.106 622.545 705.187 625.613 705.187C626.877 705.187 630.487 709.819 633.736 715.342C646.371 737.435 655.215 744.027 669.836 742.067C681.929 740.464 686.081 736.544 701.243 711.957C707.019 702.514 710.087 703.405 718.029 717.124C731.747 740.107 744.202 746.878 760.447 740.107C767.667 737.079 771.638 732.981 780.663 718.015C790.049 702.692 792.756 702.514 801.42 717.124C809.362 730.843 815.138 737.079 822.539 740.107C838.784 747.056 851.058 740.286 864.595 717.124C873.259 702.514 875.967 702.692 885.353 718.015C894.378 732.981 898.349 737.079 905.569 740.107C913.872 743.671 922.355 743.136 929.575 738.86C936.976 734.228 938.42 732.803 947.806 717.124C956.109 703.583 958.997 702.692 964.773 711.957C979.935 736.544 984.086 740.464 996.18 742.067C1010.8 744.027 1019.64 737.435 1032.28 715.342C1035.71 709.285 1039.32 705.187 1041.12 705.187C1043.11 705.187 1047.26 710.354 1052.32 718.727C1061.16 733.515 1068.2 740.107 1077.22 741.889C1082.28 742.958 1083 742.602 1083 739.217C1083 736.722 1081.92 735.475 1079.39 735.475C1073.98 735.475 1065.67 727.101 1057.19 713.204C1049.61 700.733 1043.47 696.278 1037.15 698.595C1035.53 699.307 1031.2 704.83 1027.41 710.888C1017.3 727.814 1009 735.475 1001.23 735.475C997.624 735.475 992.57 734.584 990.043 733.337C985.711 731.377 976.686 719.618 970.368 707.503C965.314 697.526 956.289 695.209 949.972 701.98C947.806 704.296 943.293 711.066 939.683 717.124C931.561 730.665 925.785 735.475 917.121 735.475C907.013 735.475 900.695 730.308 891.129 714.63C886.436 706.612 881.382 699.664 879.757 699.129C871.454 695.922 867.122 699.307 856.473 717.302C842.033 741.711 823.983 741.711 809.543 717.302C798.893 699.307 794.561 695.922 786.258 699.129C784.634 699.664 779.58 706.612 774.887 714.63C764.598 731.555 758.642 736.01 747.631 734.941C738.245 733.872 734.455 730.665 726.152 716.768C712.073 692.893 704.492 691.824 692.94 711.779C681.929 731.199 677.236 735.297 665.684 735.475C657.201 735.475 649.981 729.596 642.4 716.233C634.458 702.336 630.306 698.06 624.35 698.06C618.754 698.06 613.339 703.94 606.841 716.946C604.675 720.865 600.163 726.745 596.553 729.774C584.279 740.642 570.741 736.188 560.092 717.837C551.247 702.514 547.096 698.06 541.681 698.06C535.724 698.06 531.212 702.514 524.172 715.52C509.371 743.136 490.419 742.245 473.813 713.204C461.719 691.824 454.138 692.537 440.601 716.233C433.02 729.596 425.8 735.475 417.316 735.475C407.028 735.475 400.71 730.308 391.144 714.63C386.451 706.612 381.397 699.664 379.772 699.129C371.469 695.922 367.137 699.307 356.488 717.302C342.048 741.711 323.998 741.711 309.558 717.302C294.215 691.468 288.439 691.468 273.097 717.302C265.516 730.13 258.476 735.475 249.451 735.475C240.968 735.475 234.109 730.13 226.347 717.124C210.824 691.646 204.868 691.29 190.608 715.877C181.583 731.199 176.168 735.475 165.338 735.475C157.216 735.475 148.732 728.348 141.873 715.52C134.834 702.514 130.321 698.06 124.365 698.06C118.95 698.06 114.798 702.514 105.954 717.837C99.0945 729.596 91.5135 735.475 83.03 735.475C73.8245 735.475 66.9655 729.596 57.76 713.917C48.735 698.773 43.5005 695.388 35.739 700.02Z" fill="#C8C8C8" fill-opacity="0.52"/>
</g>
<defs>
<clipPath id="clip0_1420_2">
<rect width="1083" height="1069" fill="white" transform="translate(0 -93)"/>
</clipPath>
</defs>
</svg>
